<ttFont>
          <CharString index="0">
            464 83 rmoveto
            7 -19 -5 -11 -19 -8 -55 -23 rcurveline
            -72 callgsubr
            245 -70 callgsubr
            -78 32 -215 -13 callgsubr
            8 -61 -18 -200 -557 -8 -22 -1 -6 -24 -10 rlinecurve
            -55 -23 -72 callgsubr
            221 -70 callgsubr
            -86 35 53 153 rlineto
            232 hlineto
            -117 332 rmoveto
            99 -281 15 callgsubr
            hlineto
            return
          </CharString>
          <CharString index="1">
            -32 23 -23 32 -100 callgsubr
            vhcurveto
            return
          </CharString>
          <CharString index="2">
            vlineto
            -104 callgsubr
            return
          </CharString>
          <CharString index="3">
            66 vstem
            599 -35 callgsubr
            13 -30 callsubr
            45 19 -51 callsubr
            -216 hlineto
            -75 callsubr
            -341 vlineto
            -114 -34 -43 -16 -17 vhcurveto
            -11 -22 -48 -13 -49 hhcurveto
            -117 -63 75 128 hvcurveto
            310 vlineto
            -43 callgsubr
            50 23 -1 22 rlineto
            -235 hlineto
            -6 -22 76 -31 rlineto
            -345 vlineto
            -179 91 -81 170 161 78 72 191 vhcurveto
            return
          </CharString>
          <CharString index="4">
            123 236 -69 callsubr
            93 44 -66 -114 -84 -24 -42 -13 -17 hvcurveto
            -59 callgsubr
            -85 -14 rmoveto
            -147 88 -83 121 115 106 74 162 147 -88 83 -121 -115 -7 callsubr
            vhcurveto
            return
          </CharString>
          <CharString index="5">
            -38 callgsubr
            -103 callsubr
            return
          </CharString>
          <CharString index="6">
            -20 hstem
            -107 callsubr
            return
          </CharString>
          <CharString index="7">
            -19 -6 -9 -25 -10 vhcurveto
            return
          </CharString>
          <CharString index="8">
            -90 callsubr
            245 -70 callgsubr
            -86 35 rlineto
            return
          </CharString>
          <CharString index="9">
            -13 callsubr
            215 80 vstem
            -102 callgsubr
            return
          </CharString>
          <CharString index="10">
            -57 callsubr
            57 18 59 hhcurveto
            143 76 -106 -181 -117 -32 -62 -30 -37 hvcurveto
            -69 callgsubr
            return
          </CharString>
          <CharString index="11">
            -56 callgsubr
            198 -95 callsubr
          </CharString>
          <CharString index="12">
            hmoveto
            -106 callsubr
            endchar
          </CharString>
          <CharString index="13">
            -68 callgsubr
            -304 vlineto
            -6 -24 -44 -7 -35 hhcurveto
            -70 -30 27 69 hvcurveto
            293 vlineto
            -88 callsubr
            return
          </CharString>
          <CharString index="14">
            rmoveto
            3 -20 rlineto
            -93 callgsubr
            return
          </CharString>
          <CharString index="15">
            rmoveto
            17 -11 55 47 rlineto
            3 33 93 -55 50 hhcurveto
            20 5 52 99 -17 11 -55 -47 rlineto
            -3 -33 -93 55 -50 hhcurveto
            -20 -5 rlineto
            endchar
          </CharString>
          <CharString index="16">
            vstem
            179 -18 callgsubr
            -11 17 7 11 21 10 47 -2 callgsubr
            -241 hlineto
            -6 -22 70 -32 198 -298 rlineto
            -215 -73 callsubr
            244 vlineto
            172 266 -61 callsubr
            rlineto
            return
          </CharString>
          <CharString index="17">
            19 6 9 25 10 vhcurveto
            55 23 -6 22 rlineto
            -245 hlineto
            -63 callgsubr
            return
          </CharString>
          <CharString index="18">
            167 363 rmoveto
            -8 19 -2 -48 callsubr
            168 -397 -30 -67 -70 -82 -41 -44 rlinecurve
            8 -20 75 -24 36 54 42 87 44 109 rlinecurve
            142 351 -58 callgsubr
            -290 rlineto
            return
          </CharString>
          <CharString index="19">
            -20 8 -137 -87 callsubr
            return
          </CharString>
          <CharString index="20">
            -47 6 -22 70 -11 rlineto
            return
          </CharString>
          <CharString index="21">
            -20 hstem
            100 81 vstem
            -92 callgsubr
            return
          </CharString>
          <CharString index="22">
            -47 callgsubr
            230 -20 -106 callgsubr
            return
          </CharString>
          <CharString index="23">
            rmoveto
            13 20 -161 116 -20 -4 -43 -55 rlineto
            endchar
          </CharString>
          <CharString index="24">
            hstem
            55 80 259 81 vstem
            368 484 rmoveto
            24 -7 71 99 rlineto
            31 -27 -49 51 -112 hhcurveto
            -122 -98 -61 -122 -79 41 -54 76 -29 hvcurveto
            115 -44 rlineto
            71 -27 36 -31 -56 vvcurveto
            -76 -67 -25 -75 -66 -38 19 7 -10 vhcurveto
            -15 96 -24 7 -64 -109 rlineto
            -32 34 71 -50 116 hhcurveto
            122 97 56 121 85 -47 61 -81 31 hvcurveto
            -130 50 rlineto
            -71 27 -11 50 31 vvcurveto
            24 7 23 5 8 vhcurveto
            5 6 34 32 83 hhcurveto
            48 32 -11 -7 13 hvcurveto
            return
          </CharString>
          <CharString index="25">
            rmoveto
            55 -35 35 -59 -56 -34 -31 -13 -13 vhcurveto
            37 -53 21 5 3 40 rlineto
            2 6 12 3 11 hhcurveto
            33 18 -25 -23 -17 -10 -20 -19 -9 hvcurveto
            -16 -1 -39 -1 -5 -2 -4 -27 rcurveline
            7 -9 rlineto
            -2 6 34 -1 14 hhcurveto
            16 -5 18 -16 -28 vvcurveto
            -9 -2 -12 -2 -6 vhcurveto
            -4 -10 -24 -6 -24 hhcurveto
            -25 -27 6 4 -14 hvcurveto
            -9 -39 5 -14 rlineto
            -1 4 21 -5 30 hhcurveto
            92 44 45 45 28 -18 25 -17 15 hvcurveto
            19 18 11 22 31 vvcurveto
            return
          </CharString>
          <CharString index="26">
            -16 callgsubr
            228 -99 callgsubr
            return
          </CharString>
          <CharString index="27">
            rmoveto
            64 37 -37 -83 hvcurveto
            -214 -6 2 43 19 49 15 19 rlinecurve
            10 20 34 5 23 hhcurveto
            return
          </CharString>
          <CharString index="28">
            vhcurveto
            -76 callgsubr
            return
          </CharString>
          <CharString index="29">
            rmoveto
            5 -23 48 6 rlineto
            -196 vlineto
            -3 -1 -2 -3 -1 vhcurveto
            -45 -17 5 -23 rlineto
            146 hlineto
            6 19 -44 21 rlineto
            266 vlineto
            -24 7 rlineto
            return
          </CharString>
          <CharString index="30">
            vvcurveto
            -84 callgsubr
            214 -70 callgsubr
            -69 28 rlineto
            19 546 rmoveto
            return
          </CharString>
          <CharString index="31">
            -81 -39 callsubr
            230 -20 -98 callsubr
            return
          </CharString>
          <CharString index="32">
            -67 callsubr
            rlineto
            return
          </CharString>
          <CharString index="33">
            -36 callsubr
            208 -20 -97 callgsubr
            return
          </CharString>
          <CharString index="34">
            -54 callsubr
            245 -61 callgsubr
            return
          </CharString>
          <CharString index="35">
            -8 -83 vhcurveto
            88 9 48 10 16 vhcurveto
            22 18 40 4 26 -1 53 -2 40 -29 15 -24 18 -5 rcurveline
            60 53 rlineto
            24 -20 -50 48 return
          </CharString>
          <CharString index="36">
            -31 callsubr
            597 -101 callsubr
            return
          </CharString>
          <CharString index="37">
            293 rmoveto
            -74 callgsubr
            return
          </CharString>
          <CharString index="38">
            rmoveto
            84 24 42 13 17 vhcurveto
            7 17 37 8 32 hhcurveto
            return
          </CharString>
          <CharString index="39">
            -32 23 -23 32 return
          </CharString>
          <CharString index="40">
            -10 callsubr
            -35 return
          </CharString>
          <CharString index="41">
            -78 callsubr
            417 -16 -90 callgsubr
          </CharString>
          <CharString index="42">
            rmoveto
            40 hlineto
            120 111 -19 19 -121 -59 -121 59 -19 -19 rlineto
            endchar
          </CharString>
          <CharString index="43">
            -93 callsubr
            104 -26 -93 callsubr
            endchar
          </CharString>
          <CharString index="44">
            55 23 -51 callsubr
            return
          </CharString>
          <CharString index="45">
            4 callsubr
            -322 -105 callsubr
            224 -70 callgsubr
            -79 32 rlineto
            350 vlineto
            return
          </CharString>
          <CharString index="46">
            12 18 7 10 -39 callgsubr
            -224 hlineto
            -67 callsubr
            -148 -228 return
          </CharString>
          <CharString index="47">
            115 76 53 23 23 hvcurveto
            -15 29 rlineto
            -10 -20 -67 -33 -80 hhcurveto
            -134 -113 91 189 140 62 72 28 26 hvcurveto
            12 27 48 10 51 hhcurveto
            64 -23 callgsubr
            15 -9 -50 76 -134 hhcurveto
            -160 -156 -109 -229 return
          </CharString>
          <CharString index="48">
            -196 rmoveto
            -25 1 -19 6 -5 2 -10 -33 rcurveline
            7 -10 rlineto
            -2 4 20 -6 28 hhcurveto
            72 46 41 51 47 -39 29 -48 2 hvcurveto
            return
          </CharString>
          <CharString index="49">
            -77 callgsubr
            -62 -19 -46 callgsubr
            return
          </CharString>
          <CharString index="50">
            rmoveto
            127 38 58 24 33 vhcurveto
            19 30 return
          </CharString>
          <CharString index="51">
            6 24 46 7 31 hhcurveto
            81 51 -48 -127 -83 -22 -40 -15 -20 hvcurveto
            -7 -18 -35 -8 -44 hhcurveto
            -59 -40 14 0 hvcurveto
            endchar
          </CharString>
          <CharString index="52">
            -32 callsubr
            hlineto
            88 9 42 10 16 vhcurveto
            35 33 110 -12 39 -11 rrcurveto
            -527 -105 callsubr
            224 -70 callgsubr
            -79 32 rlineto
            626 3 callgsubr
            -36 -12 return
          </CharString>
          <CharString index="53">
            vlineto
            -55 callgsubr
            return
          </CharString>
          <CharString index="54">
            62 4 0 4 1 5 hvcurveto
            15 18 return
          </CharString>
          <CharString index="55">
            -171 -163 -152 -107 -231 vhcurveto
            return
          </CharString>
          <CharString index="56">
            -6 22 rlineto
            return
          </CharString>
          <CharString index="57">
            -325 -106 -23 callsubr
            100 61 vstem
            51 77 -93 callsubr
            endchar
          </CharString>
          <CharString index="58">
            hstem
            383 -11 callsubr
            -325 hlineto
            -10 -10 rlineto
            -117 vlineto
            24 -7 48 84 167 4 -259 -375 6 -29 rlineto
            355 127 hlineto
            -24 7 -48 -84 -184 -4 256 371 rlineto
            return
          </CharString>
          <CharString index="59">
            17 24 10 45 19 rcurveline
            -51 callsubr
            -220 hlineto
            -6 -22 71 -32 return
          </CharString>
          <CharString index="60">
            hstem
            508 650 rmoveto
            -452 -137 hlineto
            30 -7 49 90 264 2 -374 -569 6 -29 rlineto
            477 137 hlineto
            -30 7 -49 -90 -284 -2 369 565 rlineto
            return
          </CharString>
          <CharString index="61">
            -42 callsubr
            31 355 -31 callgsubr
            0 -196 -7 callgsubr
            return
          </CharString>
          <CharString index="62">
            61 vstem
            157 484 -60 callgsubr
            return
          </CharString>
          <CharString index="63">
            -4 48 -88 30 7 rlineto
            137 return
          </CharString>
          <CharString index="64">
            137 hlineto
            -30 7 -48 -88 return
          </CharString>
          <CharString index="65">
            rmoveto
            11 -12 rlineto
            return
          </CharString>
          <CharString index="66">
            -11 12 rlineto
            return
          </CharString>
          <CharString index="67">
            -61 3 -66 9 -41 5 -11 -72 rcurveline
            14 -14 35 4 66 8 64 3 rlinecurve
            return
          </CharString>
          <CharString index="68">
            -8 64 169 46 123 64 return
          </CharString>
          <CharString index="69">
            rmoveto
            -6 -24 -46 -7 -31 hhcurveto
            -81 -51 48 127 83 22 40 15 20 hvcurveto
            7 18 35 8 44 hhcurveto
            59 40 -14 0 hvcurveto
            endchar
          </CharString>
          <CharString index="70">
            vvcurveto
            -193 hlineto
            88 9 42 10 16 vhcurveto
            endchar
          </CharString>
          <CharString index="71">
            9 0 54 249 49 244 54 return
          </CharString>
          <CharString index="72">
            -24 callgsubr
            vstem
            return
          </CharString>
          <CharString index="73">
            11 -13 rlineto
            45 3 28 -17 -41 vvcurveto
            -16 -4 -11 -5 -8 vhcurveto
            return
          </CharString>
          <CharString index="74">
            169 -28 callgsubr
            return
          </CharString>
          <CharString index="75">
            110 -4 10 38 -41 callsubr
            -109 return
          </CharString>
          <CharString index="76">
            100 21 -21 210 51 return
          </CharString>
          <CharString index="77">
            25 10 vhcurveto
            return
          </CharString>
          <CharString index="78">
            vlineto
            -22 callgsubr
            endchar
          </CharString>
          <CharString index="79">
            -11 callsubr
            -20 8 return
          </CharString>
          <CharString index="80">
            110 88 110 return
          </CharString>
          <CharString index="81">
            479 -21 222 -20 hstem
            45 670 -25 callgsubr
            return
          </CharString>
          <CharString index="82">
            -30 -8 64 338 64 return
          </CharString>
          <CharString index="83">
            55 -2 callgsubr
            -245 hlineto
            -6 -22 return
          </CharString>
          <CharString index="84">
            -21 -33 callgsubr
            return
          </CharString>
          <CharString index="85">
            hstem
            -20 callsubr
            return
          </CharString>
          <CharString index="86">
            -74 -162 hvcurveto
            85 14 -69 callsubr
            return
          </CharString>
          <CharString index="87">
            120 85 return
          </CharString>
          <CharString index="88">
            -2 callsubr
            238 -20 422 0 callgsubr
            return
          </CharString>
          <CharString index="89">
            24 -7 58 78 rlineto
            14 -8 -39 59 -99 hhcurveto
            -112 -14 callgsubr
            return
          </CharString>
          <CharString index="90">
            -211 -30 callgsubr
            return
          </CharString>
          <CharString index="91">
            -14 16 -36 -5 -67 -9 -64 -3 rlinecurve
            return
          </CharString>
          <CharString index="92">
            21 -21 402 48 return
          </CharString>
          <CharString index="93">
            0 hvcurveto
            11 return
          </CharString>
          <CharString index="94">
            hstem
            38 85 return
          </CharString>
          <CharString index="95">
            -248 -164 45 -28 -21 877 45 4 -20 hstemhm
            return
          </CharString>
          <CharString index="96">
            450 rmoveto
            return
          </CharString>
          <CharString index="97">
            -6 -22 86 return
          </CharString>
          <CharString index="98">
            hintmask 00000000
            hintmask 11010000
            return
          </CharString>
          <CharString index="99">
            46 93 427 return
          </CharString>
          <CharString index="100">
            -106 -74 -162 return
          </CharString>
          <CharString index="101">
            hstem
            -8 callsubr
            93 vstem
            46 320 rmoveto
            return
          </CharString>
          <CharString index="102">
            -8 62 542 62 return
          </CharString>
          <CharString index="103">
            21 -21 389 69 return
          </CharString>
          <CharString index="104">
            3 callgsubr
            rlineto
            0 return
          </CharString>
          <CharString index="105">
            -217 -21 return
          </CharString>
          <CharString index="106">
            -35 callsubr
            -26 callgsubr
            return
          </CharString>
          <CharString index="107">
            76 159 119 -57 112 -124 return
          </CharString>
          <CharString index="108">
            -238 42 -42 170 return
          </CharString>
          <CharString index="109">
            -15 -2 callsubr
            688 return
          </CharString>
          <CharString index="110">
            91 55 -42 callgsubr
            return
          </CharString>
          <CharString index="111">
            -26 callgsubr
            193 -3 rlineto
            return
          </CharString>
          <CharString index="112">
            -251 -147 -21 926 -20 hstem
            return
          </CharString>
          <CharString index="113">
            29 -23 23 -29 -30 -22 -23 -29 vhcurveto
            return
          </CharString>
          <CharString index="114">
            -5 -14 callsubr
            52 -41 callsubr
            0 return
          </CharString>
          <CharString index="115">
            -13 callsubr
            233 81 vstem
            437 return
          </CharString>
          <CharString index="116">
            -134 -235 vhcurveto
            78 8 rmoveto
            return
          </CharString>
          <CharString index="117">
            -30 22 -22 30 29 23 22 30 return
          </CharString>
          <CharString index="118">
            -227 30 -21 432 -20 hstem
            return
          </CharString>
          <CharString index="119">
            hintmask 101001011001011010100000
            return
          </CharString>
          <CharString index="120">
            14 callgsubr
            hstem
            return
          </CharString>
          <CharString index="121">
            2 2 -13 hvcurveto
            return
          </CharString>
        <CharString name=".notdef">
          32 21 -21 680 -20 hstem
          186 469 rmoveto
          98 -98 98 98 37 -37 -98 -98 99 -99 -37 -37 -99 98 -99 -98 -37 37 99 99 -98 98 rlineto
          -99 -432 rmoveto
          468 680 -468 hlineto
          endchar
        </CharString>
        <CharString name="A">
          -31 callsubr
          397 -101 callsubr
          endchar
        </CharString>
        <CharString name="AE">
          324 0 52 151 53 47 49 246 52 hstem
          465 85 vstem
          550 570 rmoveto
          17 7 13 20 vhcurveto
          155 -4 48 -88 30 7 rlineto
          135 -495 vlineto
          -67 callsubr
          -306 -510 -12 -20 -19 -10 -19 -8 rlinecurve
          -55 -23 -72 callgsubr
          241 -70 callgsubr
          -86 35 86 146 rlineto
          228 -120 hlineto
          -55 callgsubr
          430 135 hlineto
          -30 7 -48 -88 -187 -4 rlineto
          253 vlineto
          81 114 7 callsubr
          -114 -10 -81 vhcurveto
          -85 -96 rmoveto
          -197 hlineto
          197 333 rlineto
          endchar
        </CharString>
        <CharString name="Aacute">
          -31 callsubr
          604 -101 callsubr
          13 481 -86 callgsubr
        </CharString>
        <CharString name="Acircumflex">
          -71 callsubr
          -26 486 -91 callgsubr
        </CharString>
        <CharString name="Adieresis">
          -31 callsubr
          471 -10 callgsubr
          164 -27 callsubr
          vstem
          -107 callsubr
          -40 526 rmoveto
          -32 23 -23 32 31 24 23 32 -96 callsubr
        </CharString>
        <CharString name="Agrave">
          -71 callsubr
          188 461 -84 callsubr
        </CharString>
        <CharString name="Aring">
          -31 callsubr
          446 36 100 36 hstem
          222 57 78 57 vstem
          -107 callsubr
          75 535 -82 callgsubr
        </CharString>
        <CharString name="Atilde">
          -31 callsubr
          592 -101 callsubr
          -46 488 -92 callsubr
        </CharString>
        <CharString name="B">
          81 -8 57 256 51 247 55 hstemhm
          -20 callsubr
          247 93 -63 63 -63 93 hintmask 00000000
          hintmask 11110010
          40 hmoveto
          -1 25 143 -7 75 hhcurveto
          140 152 24 156 88 -49 54 -72 25 hvcurveto
          hintmask 11110100
          52 28 39 46 76 vvcurveto
          107 -78 62 -171 -61 -195 -8 0 vhcurveto
          -57 callgsubr
          rlineto
          295 283 rmoveto
          117 36 -60 -80 -55 -17 -26 -22 -17 hvcurveto
          -9 -29 -45 -9 -65 hhcurveto
          -31 -55 14 callsubr
          227 vlineto
          -22 callgsubr
          82 298 rmoveto
          hintmask 11111000
          109 29 -68 -69 -45 -12 -27 -24 -18 hvcurveto
          -9 -22 -38 -11 -60 hhcurveto
          -26 -52 14 callsubr
          218 -29 callsubr
        </CharString>
        <CharString name="C">
          55 -28 callgsubr
          hstem
          46 89 vstem
          350 -8 rmoveto
          -60 callsubr
          -211 133 -117 171 hvcurveto
          endchar
        </CharString>
        <CharString name="Ccedilla">
          55 1 callsubr
          60 62 540 64 hstemhm
          46 89 227 59 hintmask 00000000
          hintmask 01111100
          303 -59 callsubr
          3 60 rlineto
          13 hlineto
          -60 callsubr
          -191 108 -113 147 -20 hvcurveto
          -23 -82 -32 callgsubr
        </CharString>
        <CharString name="D">
          170 -8 57 554 55 -22 callsubr
          360 93 vstem
          40 hmoveto
          -1 25 122 -7 78 hhcurveto
          263 130 80 244 -21 callgsubr
          -510 vlineto
          -100 callsubr
          -55 -23 rlineto
          305 581 -34 callgsubr
          525 -29 callsubr
        </CharString>
        <CharString name="E">
          -36 callsubr
          -97 callgsubr
          endchar
        </CharString>
        <CharString name="Eacute">
          -36 callsubr
          215 -20 -97 callgsubr
          -24 390 -86 callgsubr
        </CharString>
        <CharString name="Ecircumflex">
          -74 callsubr
          -58 395 -91 callgsubr
        </CharString>
        <CharString name="Edieresis">
          -36 callsubr
          82 -6 callgsubr
          -20 callsubr
          -72 -27 callsubr
          hintmask 00000000
          hintmask 11111010
          -101 callgsubr
          hintmask 11110110
          -72 435 rmoveto
          -32 23 -23 32 31 24 23 32 -96 callsubr
        </CharString>
        <CharString name="Egrave">
          -74 callsubr
          161 370 -84 callsubr
        </CharString>
        <CharString name="Eth">
          171 -7 56 248 54 252 55 hstem
          121 85 360 93 vstem
          35 311 -42 callsubr
          20 27 0 -1 28 hvcurveto
          -215 -54 callsubr
          -1 25 123 -6 74 hhcurveto
          266 130 78 245 -21 callgsubr
          -243 -74 vlineto
          293 253 -34 callgsubr
          244 vlineto
          86 -1 81 5 callgsubr
          -66 -4 -101 -3 vhcurveto
          227 -29 callsubr
        </CharString>
        <CharString name="Euro">
          73 12 58 156 52 60 51 189 60 hstem
          40 349 rmoveto
          10 -11 rlineto
          423 hlineto
          10 43 -10 12 rlineto
          0 -128 -3 -152 -1 vhcurveto
          14 95 45 53 23 20 rrcurveto
          11 25 35 10 52 hhcurveto
          56 35 -12 0 hvcurveto
          5 -82 22 -6 51 87 rlineto
          8 -3 -56 65 -108 hhcurveto
          -120 -129 -79 -170 -29 hvcurveto
          -60 hlineto
          -20 -150 -42 callsubr
          74 hlineto
          -139 34 104 -76 124 hhcurveto
          90 76 40 21 21 hvcurveto
          -14 28 rlineto
          -10 -18 -68 -21 -56 hhcurveto
          -85 -82 47 109 -35 hvcurveto
          121 -1 126 -2 0 vvcurveto
          11 43 -41 callsubr
          -411 hlineto
          endchar
        </CharString>
        <CharString name="F">
          -9 21 -21 306 53 237 54 -22 callsubr
          vstem
          205 306 rmoveto
          135 hlineto
          19 9 -6 -25 10 hvcurveto
          19 -45 22 6 rlineto
          186 vlineto
          -22 6 -32 -69 rlineto
          -160 208 hlineto
          17 7 14 20 vhcurveto
          195 -44 callsubr
          -465 -73 callgsubr
          248 -70 callgsubr
          -89 36 rlineto
          endchar
        </CharString>
        <CharString name="G">
          127 -28 callgsubr
          hstem
          45 89 357 82 vstem
          573 200 rmoveto
          -43 callgsubr
          38 15 -7 26 rlineto
          -224 hlineto
          -10 callsubr
          -32 rlineto
          -130 vlineto
          -23 -16 -10 -21 -4 vhcurveto
          -3 -19 -20 -1 -16 hhcurveto
          -149 -116 87 191 102 33 76 70 62 hvcurveto
          12 27 51 10 56 hhcurveto
          70 -23 callgsubr
          23 -15 -49 68 -135 hhcurveto
          -164 -173 -100 -240 -215 138 -111 178 106 72 39 24 34 hvcurveto
          endchar
        </CharString>
        <CharString name="H">
          197 21 -21 304 57 289 -20 -22 callsubr
          323 85 vstem
          613 -45 callgsubr
          -232 -323 206 vlineto
          -99 callsubr
          247 323 -221 -73 callsubr
          endchar
        </CharString>
        <CharString name="I">
          -211 21 -21 650 -89 callgsubr
          endchar
        </CharString>
        <CharString name="Iacute">
          -17 callsubr
          235 -89 callgsubr
          -149 685 -86 callgsubr
        </CharString>
        <CharString name="Icircumflex">
          -17 callsubr
          228 -89 callgsubr
          -183 690 -91 callgsubr
        </CharString>
        <CharString name="Idieresis">
          -17 callsubr
          102 -10 callgsubr
          8 110 2 85 1 110 vstem
          -94 callgsubr
          -197 730 rmoveto
          -32 23 -23 32 31 24 23 32 -96 callsubr
        </CharString>
        <CharString name="Igrave">
          -17 callsubr
          228 -89 callgsubr
          46 665 -84 callsubr
        </CharString>
        <CharString name="J">
          -228 -2 callsubr
          888 -20 hstem
          111 85 vstem
          196 -45 callgsubr
          -593 vlineto
          -103 -23 -51 -52 -61 vhcurveto
          18 -23 rlineto
          85 47 57 70 113 vvcurveto
          endchar
        </CharString>
        <CharString name="K">
          106 2 callgsubr
          120 85 vstem
          492 hmoveto
          143 -70 callgsubr
          -86 35 -235 303 203 207 29 29 -5 -2 26 11 rlinecurve
          -63 callsubr
          -228 hlineto
          -67 callsubr
          -248 -252 rlineto
          -21 226 rmoveto
          -99 callsubr
          endchar
        </CharString>
        <CharString name="L">
          -16 0 54 -13 callgsubr
          -22 callsubr
          vstem
          205 567 rmoveto
          -90 callsubr
          465 -43 callsubr
          -222 -4 rlineto
          endchar
        </CharString>
        <CharString name="Lslash">
          -11 0 54 -13 callgsubr
          hstem
          125 85 vstem
          26 222 rmoveto
          16 -5 83 45 rlineto
          -179 -29 callgsubr
          258 vlineto
          63 35 56 31 0 vvcurveto
          -19 52 -14 4 rlineto
          0 -36 -23 -50 -32 vhcurveto
          190 vlineto
          -88 callgsubr
          -268 vlineto
          -36 -21 -37 -23 -35 -20 rrcurveto
          endchar
        </CharString>
        <CharString name="M">
          341 2 callgsubr
          122 62 485 86 vstem
          744 -18 callgsubr
          -1 20 10 9 22 9 55 -2 callgsubr
          -208 hlineto
          -177 -532 -169 522 -13 10 rlineto
          -202 hlineto
          -67 callsubr
          -25 -510 -1 -18 -1 -8 -29 -12 rlinecurve
          -55 -23 -72 callgsubr
          210 -70 callgsubr
          -76 35 28 515 187 -562 19 -10 62 20 192 553 22 -490 1 -19 -11 -10 -21 -10 rlinecurve
          -45 -22 -72 callgsubr
          237 -61 callgsubr
          endchar
        </CharString>
        <CharString name="N">
          204 0 -20 33 -21 658 -1 callgsubr
          hintmask 10111000
          -64 callgsubr
          hintmask 01111000
          370 -526 rlineto
          hintmask 10111000
          72 8 rlineto
          endchar
        </CharString>
        <CharString name="Ntilde">
          204 0 -20 33 14 callgsubr
          223 -1 callgsubr
          hintmask 10111100
          -64 callgsubr
          hintmask 01111100
          370 -526 rlineto
          hintmask 10111100
          72 8 rlineto
          -414 749 -92 callsubr
        </CharString>
        <CharString name="O">
          -33 callsubr
          -103 callgsubr
          endchar
        </CharString>
        <CharString name="OE">
          455 -8 62 -54 -20 323 49 244 54 7 -20 hstemhm
          -8 callsubr
          85 hintmask 00000000
          hintmask 10110110
          46 320 rmoveto
          -208 124 -120 175 84 78 27 68 59 vhcurveto
          -77 vlineto
          hintmask 01110110
          10 -10 rlineto
          370 -43 callsubr
          -217 -4 -8 callgsubr
          106 119 -7 -14 callsubr
          56 -41 callsubr
          0 -119 -12 -106 vhcurveto
          216 vlineto
          -62 callgsubr
          -365 vlineto
          -10 -10 rlineto
          -71 vlineto
          hintmask 10101110
          61 -53 -72 27 -81 hhcurveto
          -162 -152 -106 -231 hvcurveto
          93 19 -57 callsubr
          58 18 57 hhcurveto
          145 81 -118 -169 -6 hvcurveto
          -1 -17 -6 -108 -12 -33 -43 -58 rlinecurve
          -69 callgsubr
          endchar
        </CharString>
        <CharString name="Oacute">
          -33 callsubr
          207 -20 -103 callgsubr
          200 422 -86 callgsubr
        </CharString>
        <CharString name="Ocircumflex">
          -75 callgsubr
          166 427 -91 callgsubr
        </CharString>
        <CharString name="Odieresis">
          -33 callsubr
          74 -10 callgsubr
          46 93 59 -27 callsubr
          60 -105 callgsubr
          152 467 rmoveto
          -32 23 -23 32 31 24 23 32 -96 callsubr
        </CharString>
        <CharString name="Ograve">
          -75 callgsubr
          390 402 -84 callsubr
        </CharString>
        <CharString name="Oslash">
          168 -50 -21 63 62 540 64 75 -20 -6 callsubr
          -122 43 -91 69 -55 vhcurveto
          -65 -111 11 -12 59 10 45 81 rlineto
          -19 40 47 -9 48 hhcurveto
          164 152 105 231 125 -45 93 -72 55 hvcurveto
          23 39 23 40 25 41 -11 12 rcurveline
          -59 -10 -52 -92 rlineto
          17 -39 -43 10 -49 hhcurveto
          -161 -153 -107 -231 hvcurveto
          454 210 rmoveto
          44 -49 22 -76 -98 vvcurveto
          -117 -32 -62 -30 -37 vhcurveto
          -19 -29 -57 -18 -59 hhcurveto
          -45 -39 10 20 -31 hvcurveto
          90 160 81 140 85 146 rrcurveto
          -361 -192 rmoveto
          128 38 58 24 33 vhcurveto
          19 30 57 18 58 hhcurveto
          43 36 -10 -17 30 hvcurveto
          -89 -159 -80 -140 -86 -146 rrcurveto
          -41 49 -20 74 93 vvcurveto
          endchar
        </CharString>
        <CharString name="Otilde">
          -33 callsubr
          195 -20 -103 callgsubr
          146 429 -92 callsubr
        </CharString>
        <CharString name="P">
          8 21 -21 273 53 277 55 -22 callsubr
          222 93 vstem
          273 273 rmoveto
          135 112 45 150 129 -83 61 -175 -63 -159 -8 0 hvcurveto
          -63 callgsubr
          255 -70 callgsubr
          -96 39 rlineto
          214 vlineto
          -1 23 25 -1 20 hhcurveto
          6 330 rmoveto
          116 32 -71 -80 -58 -17 -30 -19 -15 hvcurveto
          -9 -22 -42 -14 -62 hhcurveto
          -23 -24 14 callsubr
          248 -29 callsubr
        </CharString>
        <CharString name="Q">
          170 -177 -21 191 61 540 64 -6 callsubr
          -199 112 -116 160 -12 vhcurveto
          10 hlineto
          7 -3 -7 2 hhcurveto
          96 -2 20 -3 115 -87 75 -57 42 -31 68 -4 100 67 rcurveline
          -14 21 -26 -12 -21 -9 -30 4 rlinecurve
          -80 11 -82 97 -103 28 rrcurveto
          1 hlineto
          -29 10 rlineto
          83 41 110 55 205 vvcurveto
          221 -127 117 -52 callsubr
          93 19 -97 callsubr
          endchar
        </CharString>
        <CharString name="R">
          64 0 -20 33 -21 290 51 270 55 hstemhm
          -20 callsubr
          227 93 hintmask 00000000
          hintmask 01111100
          263 282 rmoveto
          19 8 -8 -19 9 hvcurveto
          79 -167 17 -35 76 -61 rrcurveto
          hintmask 10111100
          112 8 7 25 -97 21 -22 43 -84 172 rlinecurve
          -5 11 -7 11 -8 7 rrcurveto
          86 19 72 52 111 vvcurveto
          116 -80 70 -179 -61 -165 -8 0 vhcurveto
          -63 callgsubr
          242 -70 callgsubr
          -83 35 rlineto
          225 vlineto
          296 vmoveto
          -22 callgsubr
          52 hlineto
          114 34 -76 -76 -62 -23 -22 -23 -17 hvcurveto
          -9 -22 -32 -8 -62 hhcurveto
          -65 hlineto
          endchar
        </CharString>
        <CharString name="S">
          -19 -5 callsubr
          -83 callsubr
          endchar
        </CharString>
        <CharString name="STM">
          563 -100 -21 37 -21 179 206 -104 226 -132 55 -14 48 -10 53 -21 21 4 153 -48 48 -14 54 -35 35 -12 37 -14 72 hstemhm
          105 62 -10 45 -9 61 214 228 -15 87 hintmask 000000000000000000000000
          12 callsubr
          995 544 rmoveto
          -64 8 3 5 1 4 1 6 rlinecurve
          13 -1 6 -8 4 vhcurveto
          7 4 2 12 8 vvcurveto
          2 15 -9 17 -17 -2 -201 -23 rcurveline
          -17 -2 -12 -10 -1 -29 -2 -51 -3 -91 -57 -8 -23 216 rcurveline
          20 -4 12 4 5 15 rrcurveto
          3 9 -1 9 0 vvcurveto
          -19 7 -4 -14 10 -7 -1 -3 -2 -6 -3 -3 -33 8 rlinecurve
          -79 24 -17 3 -22 -22 -3 -2 rlinecurve
          12 -18 -24 6 -24 hhcurveto
          -36 -17 -14 -28 -20 8 -18 0 hvcurveto
          -1 vlineto
          0 25 9 34 vhcurveto
          hintmask 101001011001011011000000
          36 22 -10 -39 hvcurveto
          1 -2 rlineto
          -86 hlineto
          0 1 -8 -2 vvcurveto
          -1 -13 rlineto
          hintmask 100100000101010100100000
          -18 16 -7 20 16 34 5 0 vhcurveto
          -3 -5 -17 -58 rlineto
          0 -85 39 -11 4 vhcurveto
          -13 5 -7 -7 -4 -13 rrcurveto
          -1 -3 -2 -7 -2 vvcurveto
          -60 20 -20 7 0 vvcurveto
          -8 53 rlineto
          15 -2 -6 2 -10 hhcurveto
          -6 -6 -1 -1 -6 hvcurveto
          21 vlineto
          18 4 -5 10 rlineto
          -71 hlineto
          -2 -10 15 -4 rlineto
          -32 vlineto
          -13 4 -7 -7 -3 -12 -4 -10 -1 -10 12 -4 -5 -3 -2 -5 -2 -5 -3 -9 1 -11 9 -3 rrcurveto
          -4 -5 -3 -4 -6 vvcurveto
          -3 -13 0 -9 15 -4 rrcurveto
          1 6 -1 6 hhcurveto
          -34 -36 vlineto
          -7 14 rlineto
          12 callsubr
          -9 -1 1 -7 rlineto
          -27 vlineto
          hintmask 101000101001011010100000
          -29 45 -3 31 vhcurveto
          12 callsubr
          25 47 2 30 hvcurveto
          34 vlineto
          -8 1 -6 -14 rlineto
          hintmask 100010011001010100100000
          -38 26 hlineto
          18 -4 -4 0 9 -1 rrcurveto
          21 13 -3 7 -3 vhcurveto
          5 -1 37 -11 23 -9 rrcurveto
          -3 0 2 -2 -7 vhcurveto
          -3 -11 -1 -14 15 -3 rrcurveto
          17 -4 88 -19 0 vvcurveto
          -9 -38 rlineto
          0 -83 -26 -11 -5 vhcurveto
          -10 -4 -7 -11 6 -13 rrcurveto
          1 -5 5 -6 0 vvcurveto
          -74 -26 -4 13 rlineto
          10 -3 -12 0 -21 hhcurveto
          23 40 vlineto
          4 -14 rlineto
          hintmask 100010101001011010100000
          8 36 hlineto
          28 -45 5 -30 -26 -48 -4 -29 vhcurveto
          -35 vlineto
          9 -1 3 14 rlineto
          hintmask 100010101001010100100000
          40 -46 hlineto
          -2 -11 -1 -4 -2 hhcurveto
          -19 -1 2 -2 3 -18 1 -7 2 -6 4 -2 -8 -5 -1 -12 2 -7 1 -5 5 -6 4 -2 -12 -5 1 -14 7 -12 6 -10 7 -6 9 -1 rrcurveto
          -9 vlineto
          -15 -5 rlineto
          hintmask 101000101001010100100000
          1 -9 rlineto
          72 hlineto
          1 9 -14 5 rlineto
          37 vlineto
          58 22 -4 8 -3 9 3 4 5 2 rlinecurve
          71 30 4 -9 5 -10 7 -7 16 7 rlinecurve
          2 31 16 13 23 hvcurveto
          -32 64 -25 61 -3 vhcurveto
          -1 0 0 1 vhcurveto
          -1 hlineto
          -19 -7 -64 -16 -13 -5 -36 -11 -12 -26 23 -23 29 -29 rcurveline
          -22 -8 -59 -22 -25 -10 rrcurveto
          0 -55 67 -5 4 vhcurveto
          -7 8 -4 -2 -8 -5 rrcurveto
          -53 -32 -6 -4 0 vvcurveto
          -7 5 -5 -3 5 -12 6 -8 3 3 2 -5 0 -6 3 -4 rlinecurve
          4 -6 9 -5 0 vvcurveto
          -2 0 -8 4 -7 vhcurveto
          4 -7 14 -9 9 8 42 30 rcurveline
          -7 10 -42 -28 -6 -5 -3 1 -5 7 rlinecurve
          -2 6 0 6 0 vvcurveto
          43 29 -5 10 -42 -25 -4 -4 -5 2 -3 5 rlinecurve
          -4 4 0 6 0 vvcurveto
          61 40 63 -78 146 52 -3 7 -15 -3 -9 8 -20 19 -7 9 rlinecurve
          -14 18 11 14 24 8 9 3 94 28 19 5 rrcurveto
          13 9 -3 -12 -15 -13 -38 -4 -15 hvcurveto
          -72 7 2 -9 6 -31 2 -14 rlinecurve
          -139 -40 2 -8 163 41 -1 7 rlineto
          -11 hlineto
          -7 40 49 -3 rlineto
          0 -12 -40 -21 vvcurveto
          -24 17 -8 34 vhcurveto
          33 hlineto
          0 -54 -72 -12 -19 vhcurveto
          0 -71 18 -14 4 vhcurveto
          -11 3 -3 -2 -3 -6 rrcurveto
          -10 -18 -20 -51 0 vvcurveto
          -8 1 -2 -4 10 -7 11 -4 1 4 2 -3 5 -5 5 -2 rlinecurve
          7 -3 9 1 0 vvcurveto
          0 2 -6 12 -4 vhcurveto
          13 -4 10 2 2 11 19 49 rcurveline
          -12 3 -17 -48 -2 -6 -6 0 -6 2 rlinecurve
          -8 3 -1 4 0 vvcurveto
          18 50 -9 3 -19 -43 -2 -5 -5 -3 -6 4 rlinecurve
          -3 2 -6 5 0 vvcurveto
          29 67 92 -26 78 106 10 13 -7 3 -10 -9 rlineto
          -2 -40 1 -2 hhcurveto
          -21 -14 6 19 hvcurveto
          31 35 76 31 vvcurveto
          22 -19 3 -15 1 vhcurveto
          -46 4 -98 9 46 vvcurveto
          35 17 34 21 0 vvcurveto
          -5 8 rlineto
          0 -131 -70 -5 -1 vhcurveto
          -3 -2 -6 0 -4 8 -4 9 3 3 5 3 rrcurveto
          5 1 48 26 0 vvcurveto
          -2 7 rlineto
          0 -49 -24 -7 -2 vhcurveto
          -6 -2 -3 3 -3 8 -3 9 1 3 7 4 rrcurveto
          7 2 46 18 0 vvcurveto
          -3 6 rlineto
          0 -51 -18 -2 -6 -5 1 8 -2 vhcurveto
          -3 9 3 5 5 2 rrcurveto
          6 1 164 58 0 vvcurveto
          -4 11 rlineto
          0 -10 -4 -10 -3 vhcurveto
          21 3 17 43 28 hhcurveto
          hintmask 101001010101011010100000
          22 4 -25 64 hhcurveto
          80 75 40 84 hvcurveto
          15 vlineto
          24 17 15 15 -1 vhcurveto
          189 -28 10 -1 1 -6 -2 -10 rlinecurve
          -3 -11 -3 -4 -11 3 rrcurveto
          -4 -78 19 0 hvcurveto
          -4 -9 84 -22 10 -3 0 -7 -4 -10 rlinecurve
          -4 -11 -4 -2 -10 2 rrcurveto
          -2 2 -77 27 0 vvcurveto
          -3 -8 rlineto
          0 78 -31 3 -2 vhcurveto
          8 -2 -1 -10 -4 -8 -6 -11 -8 1 -7 3 rrcurveto
          -6 4 -68 33 0 vvcurveto
          -4 -7 rlineto
          0 76 -42 2 vhcurveto
          7 -5 -4 -8 -3 -8 -6 -8 -6 -2 -9 5 rrcurveto
          -1 2 -69 45 0 vvcurveto
          -5 -9 71 -49 2 -1 6 -4 -10 -14 rlinecurve
          -5 -7 -5 -3 -10 6 rrcurveto
          -1 2 -63 51 0 vvcurveto
          -7 -7 rlineto
          0 65 -57 2 vhcurveto
          6 -7 -3 -5 -6 -6 -7 -7 -4 -3 -9 6 rrcurveto
          -2 -58 62 0 hvcurveto
          -7 -7 59 -64 6 -6 -2 -5 -8 -8 rlinecurve
          -8 -9 -4 1 -9 8 rrcurveto
          -19 18 -35 48 0 vvcurveto
          -7 -5 50 -70 6 -7 -4 -6 -7 -7 rlinecurve
          -10 -4 -5 -3 -6 8 rrcurveto
          -1 2 -46 74 0 vvcurveto
          -7 -5 rlineto
          0 45 -74 -2 vvcurveto
          -11 -1 -4 -9 -4 vhcurveto
          -9 -4 -5 0 -7 9 rrcurveto
          2 -37 78 0 vhcurveto
          -8 -5 rlineto
          0 38 -80 -2 vvcurveto
          -7 -4 -6 -10 -2 vhcurveto
          -9 -4 -6 0 -3 11 rrcurveto
          hintmask 100100000010011011000000
          -1 1 -28 81 0 vvcurveto
          -8 -2 rlineto
          0 27 -87 -2 vvcurveto
          3 -7 -6 -3 -9 -4 -11 -2 -5 0 -3 12 rrcurveto
          -14 56 -7 31 0 vvcurveto
          -8 -1 rlineto
          0 15 -91 2 vhcurveto
          3 -8 -10 -4 -10 -1 -10 -1 -6 1 -1 12 rrcurveto
          -2 1 -8 88 0 vvcurveto
          -8 -1 5 -93 rlineto
          -8 -6 -1 -10 -1 vhcurveto
          -11 -2 2 11 -3 hvcurveto
          2 3 89 0 vhcurveto
          -12 hlineto
          0 -2 -96 -4 vvcurveto
          -11 12 -7 16 9 9 2 8 3 vhcurveto
          5 -8 12 0 8 1 9 1 12 4 2 8 12 -6 rcurveline
          20 -10 2 -27 -10 vvcurveto
          -45 -39 -54 -14 -32 vhcurveto
          55 -14 -96 -120 5 -4 118 136 -6 5 -11 -8 -48 13 rlineto
          28 48 21 41 22 vvcurveto
          3 -1 7 -1 7 2 105 30 rcurveline
          20 -65 3 -9 5 -9 18 7 rlinecurve
          5 12 -1 4 2 hhcurveto
          17 hlineto
          0 1 -1 13 9 vhcurveto
          2 -2 9 2 10 6 -1 7 -9 -1 rlineto
          0 -3 8 -27 76 vhcurveto
          -6 17 -15 1 -13 -4 -138 -44 rcurveline
          -17 -5 -7 10 -4 6 -4 6 -5 5 -3 3 10 2 7 6 1 6 7 -4 8 1 9 3 9 3 7 5 1 8 7 -4 11 4 8 5 rrcurveto
          8 5 6 4 8 vvcurveto
          10 -5 13 8 4 3 8 6 6 8 -2 5 9 -2 8 3 9 8 8 7 4 7 -3 8 10 -2 5 1 10 12 7 8 3 6 -3 8 rrcurveto
          8 7 6 7 6 hvcurveto
          7 8 2 7 -2 7 8 1 5 4 6 10 6 10 2 8 -4 7 6 1 7 4 4 9 5 11 3 8 -8 8 8 2 6 6 4 9 5 11 -1 8 -6 7 rrcurveto
          7 4 5 7 4 9 4 16 -5 17 -16 2 rrcurveto
          -388 -147 rmoveto
          -51 -6 22 -27 hhcurveto
          -48 -14 -71 -12 hvcurveto
          -9 -2 -23 -8 0 vvcurveto
          51 191 -4 10 rlineto
          0 -40 -3 -15 -21 -6 6 5 vhcurveto
          10 vlineto
          85 1 rlineto
          22 vlineto
          hintmask 011001011000100101000000
          28 -15 28 -52 -17 -23 -3 -6 -14 vhcurveto
          -1 6 -2 8 8 vvcurveto
          27 20 7 24 52 30 -34 -1 4 vhcurveto
          3 3 4 5 5 -2 31 -9 rcurveline
          -3 -2 -1 -3 -1 -3 -3 -7 -7 2 rlinecurve
          -3 1 -1 1 2 vvcurveto
          7 vlineto
          -10 5 -3 -12 rlineto
          0 5 -6 9 -4 vhcurveto
          14 -6 4 5 6 10 rrcurveto
          2 3 1 4 2 vvcurveto
          12 -1 6 5 1 8 rrcurveto
          -1 -3 1 -1 hhcurveto
          -2 -5 -4 -1 -11 3 -35 10 rcurveline
          -8 2 -6 -4 -2 -4 -4 4 -4 4 -5 3 6 5 15 12 11 -2 78 -23 rcurveline
          3 hlineto
          24 -247 rlineto
          -3 2 -1 2 -1 vhcurveto
          214 191 rmoveto
          85 -2 12 -1 2 -7 -1 -8 rlinecurve
          -1 -11 -7 -6 -8 3 rrcurveto
          -30 3 -9 2 0 vvcurveto
          -19 0 4 -14 hhcurveto
          -2 1 rlineto
          3 -6 -28 2 2 hhcurveto
          2 -48 -3 -41 hvcurveto
          -19 vlineto
          -75 -62 -32 -66 -4 vhcurveto
          -5 hlineto
          -2 19 76 12 -3 93 3 57 rlinecurve
          1 15 1 14 22 2 190 21 rcurveline
          10 1 3 -6 -10 vvcurveto
          -11 -3 -5 -10 -2 vhcurveto
          -2 -83 -1 0 hvcurveto
          -501 -370 rmoveto
          1 -7 4 -4 4 -2 -21 -8 -55 -23 -5 -4 -13 -4 -1 -13 6 -9 -86 -32 rcurveline
          -14 vlineto
          -7 4 -6 8 -2 13 rrcurveto
          5 1 3 5 2 vhcurveto
          46 18 14 5 0 vvcurveto
          -1 5 -52 -16 -7 -3 -6 3 -1 8 rlinecurve
          -2 14 1 1 4 2 rrcurveto
          3 58 15 0 hvcurveto
          -2 7 rlineto
          0 -45 -11 -2 vhcurveto
          -10 -4 -3 7 -1 6 rrcurveto
          14 -3 7 1 4 hhcurveto
          56 8 rlineto
          7 -3 11 11 vlineto
          6 2 0 -10 2 hvcurveto
          0 0 -1 4 -10 vhcurveto
          2 -6 5 -2 6 1 rrcurveto
          0 78 31 2 vhcurveto
          -1 -3 0 -7 3 -6 rrcurveto
          5 164 rmoveto
          -5 1 -6 3 3 12 3 12 8 0 3 -1 rrcurveto
          49 -14 5 -2 0 vvcurveto
          1 7 rlineto
          0 -43 14 -14 2 vhcurveto
          -5 4 1 7 1 6 2 10 1 3 11 -3 rrcurveto
          14 -4 36 -16 0 vvcurveto
          2 6 rlineto
          0 -39 18 -13 3 vhcurveto
          -5 4 0 9 2 6 3 8 4 1 7 -1 rrcurveto
          4 -3 89 -38 0 vvcurveto
          -23 -78 rlineto
          0 -92 22 -4 2 vhcurveto
          419 -237 rmoveto
          125 40 13 6 0 vvcurveto
          15 4 -1 -8 3 hvcurveto
          27 -84 rlineto
          0 -3 -4 -5 -2 vhcurveto
          -5 -2 -4 0 -3 7 -21 52 rcurveline
          -8 -3 16 -58 rlineto
          0 -3 -5 -6 -2 vhcurveto
          -7 -2 -2 2 -4 7 rrcurveto
          0 -16 57 -3 8 vhcurveto
          -3 8 -6 1 -5 -1 -15 -2 -53 -21 -31 -8 -11 -3 -4 0 -7 3 rrcurveto
          5 0 7 -1 4 vhcurveto
          5 -3 9 -1 9 3 rrcurveto
          -340 -258 rmoveto
          -12 50 115 30 17 8 -1 7 -33 -9 -120 -30 -1 -7 9 -2 11 -51 rlineto
          0 -5 -3 -4 -1 vhcurveto
          -6 -1 -4 1 -1 7 -16 53 rcurveline
          -9 -1 12 -63 rlineto
          12 callsubr
          0 -5 -3 -4 -1 vhcurveto
          -7 -2 -4 2 -1 8 rrcurveto
          0 -14 59 -3 7 vhcurveto
          -1 7 -3 1 -7 1 rrcurveto
          -20 3 -2 2 0 vvcurveto
          -1 -7 22 -8 15 -70 2 -9 7 -7 17 4 rlinecurve
          3 15 -3 6 2 hhcurveto
          2 6 -4 2 9 hvcurveto
          7 2 4 3 3 4 rrcurveto
          -5 vlineto
          11 2 12 5 rlineto
          hintmask 011001011001010100100000
          -3 7 rlineto
          212 -45 rmoveto
          3 -5 8 3 38 -33 rlineto
          0 -1 -5 -4 -5 vhcurveto
          -5 -5 -3 0 -4 3 -44 35 rcurveline
          -5 -6 43 -43 rlineto
          0 0 -4 -5 -6 vhcurveto
          -5 -5 -3 -1 -6 5 rrcurveto
          0 -44 40 -7 6 vhcurveto
          -6 5 -2 0 -7 -4 rrcurveto
          -5 -3 -12 -7 0 vvcurveto
          3 -6 20 7 50 -49 11 -11 13 11 6 6 rlinecurve
          6 5 1 4 4 vvcurveto
          2 8 0 6 7 vhcurveto
          4 5 2 5 1 4 2 -2 rcurveline
          7 8 6 10 -4 5 -6 -6 -40 35 79 90 9 17 -4 4 rlineto
          -413 456 rmoveto
          -25 7 -44 17 -8 2 rrcurveto
          -15 4 -7 -17 -6 vvcurveto
          -2 vlineto
          -4 2 -2 0 -3 1 2 2 0 1 1 2 1 10 -2 6 -6 5 2 2 3 5 1 4 1 4 2 10 -5 7 3 1 3 3 4 7 3 15 -3 10 -10 4 rrcurveto
          0 -7 3 -2 1 vhcurveto
          17 vlineto
          2 8 4 5 hhcurveto
          4 3 -4 -10 1 hvcurveto
          0 7 -41 -8 vvcurveto
          1 -6 6 -2 6 -1 rrcurveto
          0 65 -25 15 -3 vhcurveto
          -1 -2 -5 -5 -1 -5 -1 -5 0 -10 2 -4 rrcurveto
          -79 -34 rmoveto
          -11 vlineto
          -19 -38 -3 -23 -23 -37 3 19 vhcurveto
          11 vlineto
          1 -112 rmoveto
          12 vlineto
          19 38 0 23 23 38 0 -19 vhcurveto
          -12 vlineto
          68 280 rmoveto
          12 vlineto
          -10 3 rlineto
          2 -3 0 7 vvcurveto
          9 5 6 8 8 4 -7 -7 3 vhcurveto
          -12 5 6 -9 19 hhcurveto
          12 6 4 6 3 hvcurveto
          7 6 6 5 6 hhcurveto
          7 6 -8 -6 hvcurveto
          8 hlineto
          9 -4 16 -18 -12 -6 -8 -6 -6 vhcurveto
          -5 -3 -4 -4 -5 hhcurveto
          -5 -5 3 8 -4 hvcurveto
          17 -6 -8 8 -16 hhcurveto
          -17 -8 -9 -16 -14 6 -10 0 hvcurveto
          -143 -44 rmoveto
          -7 3 0 5 4 9 1 5 3 6 8 -2 4 -1 29 -13 13 -6 12 -5 -4 -10 -1 -2 rrcurveto
          -3 -7 -3 -1 0 vvcurveto
          -1 -26 rmoveto
          -4 -3 -1 -4 -1 -1 -51 16 rcurveline
          -7 1 0 5 2 12 1 6 1 3 10 -1 rrcurveto
          2 39 -14 0 hvcurveto
          9 -4 1 -8 -1 -8 rrcurveto
          -30 vmoveto
          -2 -4 -2 -1 -1 -1 rrcurveto
          3 -20 -25 6 -4 hhcurveto
          -4 3 -6 0 2 12 4 10 2 2 8 -2 rrcurveto
          hintmask 100010101001011010100000
          5 -1 28 -11 2 -1 6 -2 8 2 -1 -15 rrcurveto
          -13 -172 rmoveto
          -44 vlineto
          -9 -9 -1 -1 -8 hvcurveto
          46 vlineto
          315 vmoveto
          25 -44 hlineto
          -10 2 -8 3 -7 4 rrcurveto
          26 -462 rmoveto
          -26 23 hlineto
          26 9 rlineto
          -26 313 rmoveto
          8 -2 9 -1 9 -1 rrcurveto
          -24 -26 vlineto
          endchar
        </CharString>
        <CharString name="Scaron">
          -19 -5 callsubr
          200 -20 -83 callsubr
          -128 150 -65 callsubr
        </CharString>
        <CharString name="T">
          7 21 -21 601 49 hstem
          229 85 vstem
          524 650 rmoveto
          -505 -137 hlineto
          24 -7 50 93 136 4 rlineto
          -520 -73 callsubr
          519 vlineto
          14 9 13 18 -1 vhcurveto
          109 -3 50 -93 24 7 rlineto
          endchar
        </CharString>
        <CharString name="Thorn">
          -7 0 205 -50 50 241 51 -51 204 hstemhm
          -20 callsubr
          202 93 hintmask 00000000
          hintmask 10011100
          -94 callgsubr
          101 vlineto
          hintmask 01101100
          -2 21 24 -1 21 hhcurveto
          128 101 39 131 112 -74 60 -175 -13 -16 0 -1 -17 hvcurveto
          74 -50 rmoveto
          104 24 -64 -66 -47 -12 -28 -14 -16 hvcurveto
          -11 -22 -33 -9 -58 hhcurveto
          -27 -23 14 callsubr
          212 -29 callsubr
        </CharString>
        <CharString name="U">
          163 -8 62 596 -99 callgsubr
          endchar
        </CharString>
        <CharString name="Uacute">
          -16 callgsubr
          235 -99 callgsubr
          -326 487 -86 callgsubr
        </CharString>
        <CharString name="Ucircumflex">
          -81 callsubr
          -390 492 -91 callgsubr
        </CharString>
        <CharString name="Udieresis">
          -16 callgsubr
          102 -10 callgsubr
          99 85 1 110 108 110 20 -104 callsubr
          -414 532 rmoveto
          -106 callsubr
          218 -95 callsubr
        </CharString>
        <CharString name="Ugrave">
          -81 callsubr
          -191 467 -84 callsubr
        </CharString>
        <CharString name="V">
          102 13 13 callsubr
          173 -18 callgsubr
          -7 19 5 11 19 8 -24 callsubr
          78 -32 215 -596 20 -8 61 18 200 557 8 22 1 6 -39 callgsubr
          -221 hlineto
          -67 callsubr
          -168 -485 rlineto
          endchar
        </CharString>
        <CharString name="W">
          440 13 13 callsubr
          176 -18 callgsubr
          -6 19 4 11 19 8 -24 callsubr
          78 -32 181 -596 20 -8 77 18 141 489 148 -499 20 -8 74 18 169 557 7 22 2 6 -39 callgsubr
          -222 hlineto
          -67 callsubr
          -141 -485 -157 532 -19 10 -61 -20 -152 -522 rlineto
          endchar
        </CharString>
        <CharString name="X">
          110 2 callgsubr
          206 -18 callgsubr
          -14 19 5 13 14 6 -24 callsubr
          72 -32 194 -270 -176 -243 -9 -13 -4 -14 -27 -11 rlinecurve
          -55 -23 -72 callgsubr
          226 -70 callgsubr
          -86 35 157 216 137 -190 14 -19 -5 -13 -14 -6 rlinecurve
          -55 -23 -72 callgsubr
          245 -70 callgsubr
          -72 32 -202 280 164 233 16 23 2 6 22 9 rlinecurve
          -63 callsubr
          -226 hlineto
          -67 callsubr
          -145 -206 rlineto
          endchar
        </CharString>
        <CharString name="Y">
          62 2 callgsubr
          258 85 -91 callsubr
          endchar
        </CharString>
        <CharString name="Yacute">
          62 -30 callgsubr
          235 -20 hstem
          258 85 -91 callsubr
          -100 377 -86 callgsubr
        </CharString>
        <CharString name="Ydieresis">
          62 -30 callgsubr
          102 -10 callgsubr
          137 110 11 85 12 110 -91 callsubr
          -178 422 rmoveto
          -106 callsubr
          218 -95 callsubr
        </CharString>
        <CharString name="Z">
          17 0 53 544 53 -47 callsubr
          endchar
        </CharString>
        <CharString name="Zcaron">
          17 0 53 544 53 208 -20 -47 callsubr
          -255 111 -65 callsubr
        </CharString>
        <CharString name="a">
          -47 callgsubr
          -106 callgsubr
          endchar
        </CharString>
        <CharString name="aacute">
          -47 callgsubr
          237 -20 -106 callgsubr
          -325 542 -86 callgsubr
        </CharString>
        <CharString name="acircumflex">
          -85 callsubr
          -359 547 -91 callgsubr
        </CharString>
        <CharString name="acute">
          -243 573 -21 143 -20 hstem
          40 572 -86 callgsubr
        </CharString>
        <CharString name="adieresis">
          -47 callgsubr
          104 -6 callgsubr
          38 77 -77 121 88 111 -82 82 hintmask 00000000
          hintmask 11111001
          -107 callgsubr
          -373 587 rmoveto
          -68 callsubr
          vhcurveto
          hintmask 11110110
          -100 callgsubr
          hvcurveto
          198 -95 callsubr
        </CharString>
        <CharString name="ae">
          142 -8 63 155 248 -59 59 hstem
          38 78 168 81 195 80 vstem
          484 458 rmoveto
          -57 -51 -25 -40 -34 hvcurveto
          45 -25 -45 20 -59 hhcurveto
          -94 -62 -51 -22 -19 hvcurveto
          -53 callgsubr
          26 4 21 hhcurveto
          73 24 -47 -53 -1 hvcurveto
          -1 -58 rlineto
          -187 -16 -58 -39 -74 vvcurveto
          -62 40 -58 90 39 65 11 49 71 vhcurveto
          -36 33 51 -24 55 hhcurveto
          74 57 44 20 18 hvcurveto
          -14 26 rlineto
          -15 -34 -35 -12 -42 hhcurveto
          -83 -55 46 101 -3 hvcurveto
          260 16 15 15 rlineto
          37 vlineto
          114 -58 74 -98 vhcurveto
          -18 -62 rmoveto
          62 32 -49 -83 hvcurveto
          -194 -16 2 93 23 24 15 17 rlinecurve
          9 18 22 5 20 hhcurveto
          -268 -346 rmoveto
          -41 -41 22 -53 callsubr
          54 23 97 7 -2 -123 rcurveline
          -7 -11 -38 -15 -34 hhcurveto
          endchar
        </CharString>
        <CharString name="agrave">
          -85 callsubr
          -125 522 -84 callsubr
        </CharString>
        <CharString name="ampersand">
          143 -19 -21 32 54 263 53 242 54 hstem
          87 69 325 62 vstem
          387 323 rmoveto
          11 -12 43 -10 44 -54 -4 -66 rlinecurve
          -1 -24 -9 -22 -18 -20 -35 42 -35 47 -19 24 -94 119 rcurveline
          54 40 39 29 58 54 -6 72 rlinecurve
          71 -6 -63 45 -88 hhcurveto
          -87 -84 -43 -94 -56 30 -49 55 -72 hvcurveto
          -63 -48 -67 -58 -87 vvcurveto
          -109 103 -50 112 61 59 15 26 48 vhcurveto
          37 -39 29 -22 25 -12 98 40 rcurveline
          -2 26 -49 -7 -32 13 -44 45 rlinecurve
          37 36 18 39 1 37 1 46 -22 44 -32 30 rrcurveto
          71 -1 84 5 callgsubr
          -129 -8 -117 vhcurveto
          -111 -166 rmoveto
          39 -50 40 -50 23 -26 -33 -15 -40 -8 -33 -1 -98 -3 -67 63 7 74 5 54 43 47 30 23 rrcurveto
          -48 241 rmoveto
          20 6 14 6 8 vhcurveto
          11 7 31 13 39 -3 63 -5 27 -41 3 -36 3 -37 -21 -30 -33 -27 -51 -42 rcurveline
          -51 65 -33 47 47 vvcurveto
          endchar
        </CharString>
        <CharString name="aring">
          -47 callgsubr
          79 36 100 36 hstemhm
          38 77 -13 57 78 57 -18 82 hintmask 0000000000000000
          hintmask 1111110010000000
          -107 callgsubr
          hintmask 1111101100000000
          -263 596 -82 callgsubr
        </CharString>
        <CharString name="asciicircum">
          -87 409 -21 270 -20 hstem
          40 413 rmoveto
          34 -25 151 173 151 -172 34 26 -165 243 rlineto
          -42 hlineto
          endchar
        </CharString>
        <CharString name="asciitilde">
          24 262 303 rmoveto
          35 -23 40 -22 48 4 59 5 43 42 19 43 -9 21 rcurveline
          -48 14 -5 -17 -10 -25 -11 -15 rlinecurve
          -8 -11 -15 -16 -14 -3 -12 3 -39 29 -31 20 -35 23 -40 22 -48 -4 -61 -5 -42 -44 -18 -41 9 -21 rcurveline
          48 -14 5 17 10 25 11 15 rlinecurve
          8 11 15 16 14 3 14 -4 22 -18 46 -30 rrcurveto
          endchar
        </CharString>
        <CharString name="asterisk">
          -93 362 -21 347 -20 hstem
          203 688 rmoveto
          -15 -142 -138 32 -13 -33 132 -61 -73 -122 29 -21 97 105 96 -105 29 21 -73 122 132 61 -13 33 -138 -32 -15 142 rlineto
          endchar
        </CharString>
        <CharString name="at">
          438 -233 57 168 47 -47 64 343 59 164 56 hstemhm
          40 87 166 83 484 84 hintmask 00000000
          hintmask 11011111
          692 -11 callsubr
          -19 8 -39 -13 rlineto
          7 -29 -47 6 -33 hhcurveto
          -154 -78 -132 -141 -105 43 -88 95 59 59 34 34 34 hvcurveto
          -39 13 38 -29 60 hhcurveto
          99 151 77 229 231 -154 149 -228 -261 -261 -195 -325 -297 217 -94 169 148 97 72 12 15 hvcurveto
          -15 29 rlineto
          -13 -25 -91 -43 -109 hhcurveto
          -183 -136 120 231 271 186 176 226 203 118 -143 -197 -125 -47 -118 -96 -38 -25 19 37 8 1 12 37 335 hvcurveto
          -115 -344 rmoveto
          hintmask 10111111
          -26 -25 -40 -24 -41 hhcurveto
          -54 -41 42 102 63 16 78 38 43 hvcurveto
          7 20 24 8 37 hhcurveto
          56 40 -19 0 hvcurveto
          endchar
        </CharString>
        <CharString name="atilde">
          -47 callgsubr
          225 -20 -106 callgsubr
          -379 549 -92 callsubr
        </CharString>
        <CharString name="b">
          -34 -8 64 333 69 -33 callgsubr
          65 81 233 85 vstem
          65 23 rmoveto
          -17 33 88 -14 53 hhcurveto
          123 102 0 callsubr
          -65 -62 -31 -7 -12 hvcurveto
          260 3 callgsubr
          -135 -87 callsubr
          81 -232 rmoveto
          -56 callsubr
        </CharString>
        <CharString name="backslash">
          -129 -10 -21 740 -20 hstem
          73 709 rmoveto
          -50 -23 116 -268 60 -153 120 -288 rlinecurve
          16 -8 50 23 -117 268 -59 153 -120 288 rlinecurve
          endchar
        </CharString>
        <CharString name="bar">
          -309 -87 -21 836 -20 hstem
          80 67 vstem
          80 718 rmoveto
          3 -288 0 -279 -3 -248 12 -11 rcurveline
          55 10 -3 278 0 289 3 248 9 callgsubr
        </CharString>
        <CharString name="braceleft">
          -231 93 63 vstem
          95 295 rmoveto
          0 89 57 -4 43 vhcurveto
          -9 94 -11 68 -4 59 -2 32 1 27 7 13 12 6 9 4 23 1 23 1 21 -3 21 -6 16 45 rcurveline
          -11 19 -8 4 -34 1 -26 -6 rlinecurve
          -57 -13 -64 -55 6 -109 2 -41 12 -56 6 -95 rrcurveto
          2 -30 -93 -52 0 vvcurveto
          -16 vlineto
          0 93 -52 -2 -30 vhcurveto
          -6 -95 -12 -56 -2 -41 -6 -110 65 -54 56 -13 27 -6 34 1 7 4 11 19 rcurveline
          -16 45 -21 -6 -21 -3 -23 1 rlinecurve
          -19 1 -10 2 -15 8 -7 13 -1 27 2 32 4 59 11 68 9 94 rrcurveto
          4 43 -89 57 0 vvcurveto
          endchar
        </CharString>
        <CharString name="braceright">
          -231 149 63 vstem
          210 295 rmoveto
          0 -89 -57 4 -43 vhcurveto
          9 -94 11 -68 4 -59 2 -32 -1 -27 -7 -13 -15 -8 -10 -2 -19 -1 -23 -1 -21 3 -21 6 -16 -45 rcurveline
          11 -19 7 -4 34 -1 27 6 rlinecurve
          56 13 65 54 -6 110 -2 41 -12 56 -6 95 rrcurveto
          -2 30 93 52 0 vvcurveto
          16 vlineto
          0 -93 52 2 30 vhcurveto
          6 95 12 56 2 41 6 109 -64 55 -57 13 -26 6 -34 -1 -8 -4 -11 -19 rcurveline
          16 -45 21 6 21 3 23 -1 rlinecurve
          23 -1 9 -4 12 -6 7 -13 1 -27 -2 -32 -4 -59 -11 -68 -9 -94 rrcurveto
          -4 -43 89 -57 0 vvcurveto
          endchar
        </CharString>
        <CharString name="bracketleft">
          -12 callsubr
          79 75 -75 191 hintmask 00000000
          hintmask 10011000
          91 758 rmoveto
          -12 -11 4 -248 0 -408 -4 -248 rlinecurve
          hintmask 01100100
          12 -11 179 8 rlineto
          36 vlineto
          hintmask 10101000
          -116 9 -3 253 0 314 3 253 rlinecurve
          hintmask 10100100
          116 9 rlineto
          36 vlineto
          endchar
        </CharString>
        <CharString name="bracketright">
          -12 callsubr
          18 191 -75 75 hintmask 00000000
          hintmask 01101000
          197 -168 rmoveto
          12 11 -4 248 0 408 4 248 rlinecurve
          hintmask 10011000
          -12 11 -179 -8 rlineto
          -36 vlineto
          hintmask 10100100
          116 -9 3 -253 0 -314 -3 -253 rlinecurve
          hintmask 10101000
          -116 -9 rlineto
          -36 vlineto
          endchar
        </CharString>
        <CharString name="brokenbar">
          -312 -86 -21 835 -20 hstem
          86 60 vstem
          146 -97 rmoveto
          -3 111 -3 109 -2 107 -12 11 rcurveline
          -40 -10 -2 -112 -4 -110 -3 -105 rlinecurve
          12 -11 rlineto
          -12 825 rmoveto
          3 -111 4 -109 2 -107 12 -11 rcurveline
          39 10 2 112 4 110 3 105 9 callgsubr
        </CharString>
        <CharString name="bullet">
          -201 227 183 hstem
          76 183 vstem
          76 318 rmoveto
          -53 38 -38 53 52 40 38 53 52 -40 40 -52 -53 -38 -40 -52 vhcurveto
          endchar
        </CharString>
        <CharString name="c">
          -102 -8 64 340 62 hstem
          38 84 vstem
          320 314 rmoveto
          -18 callsubr
          -145 87 -85 122 -44 callgsubr
          endchar
        </CharString>
        <CharString name="caron">
          7 callgsubr
          160 558 -65 callsubr
        </CharString>
        <CharString name="ccedilla">
          -102 1 callsubr
          60 64 340 62 hstemhm
          38 84 149 59 hintmask 00000000
          hintmask 01111100
          212 -59 callsubr
          3 60 rlineto
          1 hlineto
          -44 callgsubr
          8 -76 -18 callsubr
          -130 70 -82 102 -15 hvcurveto
          -23 -81 -32 callgsubr
        </CharString>
        <CharString name="cedilla">
          -179 1 callsubr
          86 -20 hstemhm
          182 26 0 59 hintmask 00000000
          hintmask 01101000
          149 -59 callsubr
          5 86 rlineto
          -31 hlineto
          -30 -104 -34 callsubr
          hintmask 10110000
          -15 callgsubr
        </CharString>
        <CharString name="cent">
          -116 -14 -21 143 57 312 55 134 -20 hstem
          41 77 vstem
          299 391 rmoveto
          21 -6 65 83 -7 12 -44 49 -86 3 rlinecurve
          13 123 -12 11 -60 -10 13 -127 rlineto
          -88 -15 -73 -67 -130 vvcurveto
          -121 63 -73 96 -13 vhcurveto
          -13 -134 12 -11 60 10 -14 133 76 4 46 38 14 15 rlinecurve
          -14 23 rlineto
          -13 -31 -42 -10 -35 hhcurveto
          -86 -55 60 108 68 22 42 13 19 hvcurveto
          9 19 38 6 27 hhcurveto
          16 27 -2 -3 10 hvcurveto
          endchar
        </CharString>
        <CharString name="circumflex">
          7 callgsubr
          40 577 -91 callgsubr
        </CharString>
        <CharString name="colon">
          -308 -8 110 246 -10 callgsubr
          59 110 vstem
          59 403 rmoveto
          -106 callsubr
          -356 vmoveto
          -106 callsubr
          endchar
        </CharString>
        <CharString name="comma">
          -50 callsubr
        </CharString>
        <CharString name="copyright">
          274 -39 56 119 55 274 55 113 56 hstem
          43 78 114 76 378 12 callgsubr
          158 -129 199 204 163 135 234 229 -157 130 -199 -203 -165 9 callsubr
          189 109 116 172 172 115 -116 -195 -189 -109 -116 -171 -170 -118 114 197 vhcurveto
          347 65 rmoveto
          19 -6 59 75 rlineto
          11 -6 -45 47 -81 hhcurveto
          -83 -96 -50 -142 -129 79 -63 95 72 49 37 15 12 hvcurveto
          -11 21 rlineto
          -11 -31 -38 -7 -30 hhcurveto
          -79 -42 49 101 59 14 34 12 17 hvcurveto
          9 16 33 5 26 hhcurveto
          19 20 -3 -2 8 hvcurveto
          endchar
        </CharString>
        <CharString name="currency">
          122 73 -21 50 64 318 64 50 -20 hstem
          112 85 264 85 vstem
          112 323 rmoveto
          -50 12 -41 20 -33 vhcurveto
          -96 -117 26 -30 127 87 rlineto
          -24 35 43 -13 45 hhcurveto
          45 46 13 26 39 hvcurveto
          130 -89 26 30 -98 119 rlineto
          21 34 13 42 51 vvcurveto
          48 -12 41 -20 33 vhcurveto
          96 118 -26 30 -127 -88 rlineto
          25 -36 -42 13 -45 hhcurveto
          -45 -47 -13 -27 -39 hvcurveto
          -129 90 -26 -30 97 -120 rlineto
          -21 -33 -12 -42 -50 vvcurveto
          85 17 rmoveto
          78 27 31 12 15 vhcurveto
          9 17 29 11 37 hhcurveto
          86 56 -61 -113 -78 -27 -31 -12 -15 hvcurveto
          -9 -17 -29 -11 -37 hhcurveto
          -86 -56 61 113 hvcurveto
          endchar
        </CharString>
        <CharString name="d">
          -14 -8 69 333 64 230 -20 8 callsubr
          -12 callgsubr
          -159 vlineto
          0 -51 9 -42 -123 -102 -76 -159 -119 57 -112 124 65 62 31 7 12 vhcurveto
          4 -2 29 -30 14 -6 95 8 6 22 -69 32 rlineto
          -81 20 -38 callsubr
        </CharString>
        <CharString name="dagger">
          -63 -180 -21 566 54 210 -20 hstemhm
          205 50 -50 62 hintmask 00000000
          hintmask 11101000
          448 -50 callgsubr
          -5 -66 -8 -69 -6 -41 12 -115 13 -217 3 -58 rrcurveto
          hintmask 11110000
          41 hlineto
          3 59 13 216 11 114 rrcurveto
          hintmask 11101000
          -5 43 -7 68 -3 66 1 callgsubr
          rrcurveto
          endchar
        </CharString>
        <CharString name="daggerdbl">
          -38 -175 -21 225 54 282 54 210 -20 hstem
          217 62 vstem
          460 -50 callgsubr
          -3 -50 -6 -49 -7 -41 7 -42 6 -49 3 -51 -40 callsubr
          -4 -67 -11 -105 -5 -40 14 -13 rcurveline
          92 10 -7 45 -13 106 -4 64 rlinecurve
          1 callgsubr
          11 72 rcurveline
          -16 callsubr
          5 51 7 49 6 41 -7 42 -7 49 -4 50 1 callgsubr
          rrcurveto
          endchar
        </CharString>
        <CharString name="degree">
          -200 410 47 154 47 hstem
          43 67 116 67 vstem
          110 538 rmoveto
          44 15 18 5 5 vhcurveto
          3 8 11 3 14 hhcurveto
          49 14 -38 -43 -44 -15 -18 -5 -5 hvcurveto
          -3 -8 -11 -3 -14 hhcurveto
          -49 -14 39 42 hvcurveto
          -67 -3 rmoveto
          -71 42 -54 81 76 51 48 75 69 -42 56 -82 -73 -53 -44 -79 vhcurveto
          endchar
        </CharString>
        <CharString name="dieresis">
          -160 562 -10 callgsubr
          34 -27 callsubr
          vstem
          34 617 rmoveto
          -32 23 -23 32 31 24 23 32 -96 callsubr
        </CharString>
        <CharString name="divide">
          -13 120 104 -104 234 73 104 hstemhm
          209 104 hintmask 00000000
          hintmask 01110000
          47 309 -42 callsubr
          31 375 -31 callgsubr
          0 -216 -7 callgsubr
          150 125 rmoveto
          10 callsubr
          6 callsubr
          -307 vmoveto
          10 callsubr
          vhcurveto
          hintmask 10110000
          6 callsubr
          endchar
        </CharString>
        <CharString name="dollar">
          -75 -66 -21 134 58 449 55 126 -20 hstem
          48 67 vstem
          329 455 rmoveto
          23 -7 63 91 -20 19 -48 46 -87 5 rlinecurve
          11 115 -12 11 -60 -10 11 -117 rlineto
          -83 -9 -79 -47 -98 vvcurveto
          -67 36 -53 65 -22 vhcurveto
          109 -37 55 -17 45 -29 -9 -56 rlinecurve
          -61 -10 -63 -7 -41 hhcurveto
          -60 -37 15 13 -21 hvcurveto
          -4 82 -24 6 -59 -95 23 -27 63 -47 97 -5 rlinecurve
          -13 -123 12 -11 60 10 -13 125 84 9 72 42 12 80 rlinecurve
          11 75 -48 74 -89 30 -112 38 rcurveline
          -57 19 -9 37 29 vvcurveto
          22 5 8 8 10 vhcurveto
          13 11 26 20 65 hhcurveto
          43 29 -9 -5 9 hvcurveto
          endchar
        </CharString>
        <CharString name="dotaccent">
          -358 568 -10 callgsubr
          34 110 vstem
          34 623 rmoveto
          -106 callsubr
          endchar
        </CharString>
        <CharString name="dotlessi">
          21 -21 458 -86 callsubr
          endchar
        </CharString>
        <CharString name="dotlessj">
          -297 -2 callsubr
          696 -20 hstem
          89 81 vstem
          -40 callgsubr
          endchar
        </CharString>
        <CharString name="e">
          -81 -39 callsubr
          -98 callsubr
          endchar
        </CharString>
        <CharString name="eacute">
          -81 -39 callsubr
          237 -20 -98 callsubr
          -105 178 -86 callgsubr
        </CharString>
        <CharString name="ecircumflex">
          -76 callsubr
          -139 183 -91 callgsubr
        </CharString>
        <CharString name="edieresis">
          -81 -39 callsubr
          104 -6 callgsubr
          38 85 -39 -27 callsubr
          -54 80 hintmask 00000000
          hintmask 11111001
          -102 callgsubr
          hintmask 11110110
          -153 223 rmoveto
          -32 23 -23 32 31 24 23 32 -96 callsubr
        </CharString>
        <CharString name="egrave">
          -76 callsubr
          100 158 -84 callsubr
        </CharString>
        <CharString name="eight">
          -13 -5 callsubr
          hstemhm
          49 84 -72 72 241 84 -62 80 hintmask 00000000
          hintmask 11011000
          263 658 rmoveto
          -121 -81 -76 -98 -71 43 -61 74 -29 hvcurveto
          hintmask 11100100
          -52 -23 -77 -56 -94 vvcurveto
          -95 79 -63 128 137 83 73 100 79 -52 58 -88 37 vhcurveto
          hintmask 11101000
          75 33 47 58 69 vvcurveto
          90 -80 69 -115 vhcurveto
          -130 -492 rmoveto
          40 16 45 91 46 vhcurveto
          hintmask 11100100
          132 -52 24 -38 -55 vvcurveto
          -31 -8 -27 -11 -15 vhcurveto
          -12 -20 -45 -13 -45 hhcurveto
          -74 -60 35 77 hvcurveto
          124 430 rmoveto
          hintmask 11101000
          64 53 -35 -69 -42 -19 -43 -83 -42 hvcurveto
          -114 49 -17 35 51 vvcurveto
          37 9 21 10 15 vhcurveto
          14 24 40 9 33 hhcurveto
          endchar
        </CharString>
        <CharString name="ellipsis">
          98 -8 -10 callgsubr
          52 110 100 110 100 110 cntrmask 01110000
          52 47 rmoveto
          -106 callsubr
          210 hmoveto
          -106 callsubr
          210 -95 callsubr
        </CharString>
        <CharString name="emdash">
          347 205 51 -41 -21 72 13 callgsubr
          hintmask 10000000
          62 217 -42 callsubr
          hintmask 01100000
          90 652 -11 -14 callsubr
          60 -41 callsubr
          hintmask 10000000
          0 -402 -10 -339 vhcurveto
          endchar
        </CharString>
        <CharString name="endash">
          65 205 51 -38 -21 68 13 callgsubr
          hintmask 10000000
          63 217 -42 callsubr
          hintmask 01100000
          61 396 -8 -14 callsubr
          56 -41 callsubr
          hintmask 10000000
          0 -237 -9 -219 vhcurveto
          endchar
        </CharString>
        <CharString name="equal">
          0 236 -21 221 -20 hstem
          65 389 -46 callsubr
          -12 -205 -46 callsubr
          endchar
        </CharString>
        <CharString name="eth">
          -20 -8 64 340 62 248 11 callgsubr
          192 516 rmoveto
          16 2 6 9 17 21 19 25 rlinecurve
          40 -34 38 -45 25 -63 rrcurveto
          15 -24 -30 12 -43 hhcurveto
          -101 -117 -66 -168 -137 78 -95 134 122 87 79 167 9 hvcurveto
          10 185 -92 131 -100 65 rrcurveto
          22 28 20 25 0 vvcurveto
          -38 34 -17 -2 rlineto
          0 -17 -22 -22 -31 vhcurveto
          -29 15 -28 12 -26 10 -18 -33 rcurveline
          21 -14 25 -15 25 -18 -43 -62 rcurveline
          222 -322 rmoveto
          -5 -96 -30 -43 -11 -14 rrcurveto
          -7 -17 -39 -8 -28 hhcurveto
          -87 -43 77 101 77 25 44 12 17 hvcurveto
          9 13 21 15 52 hhcurveto
          55 42 -17 -21 31 hvcurveto
          9 -42 2 -54 -2 -38 rrcurveto
          endchar
        </CharString>
        <CharString name="exclam">
          -291 -8 110 586 -20 hstemhm
          69 110 -92 71 -9 callsubr
          71 678 rmoveto
          32 -489 13 -2 25 4 34 486 -12 11 rlineto
          hintmask 11100000
          -94 -641 rmoveto
          -106 callsubr
          endchar
        </CharString>
        <CharString name="exclamdown">
          -309 -2 callsubr
          586 -6 callgsubr
          58 110 -90 71 -9 callsubr
          165 -228 rmoveto
          -32 489 -13 2 -25 -4 -34 -486 12 -11 rlineto
          hintmask 11100000
          -15 641 rmoveto
          -106 callsubr
          endchar
        </CharString>
        <CharString name="f">
          -223 -15 callsubr
          0 167 hstemhm
          99 81 -9 callsubr
          -26 callgsubr
          -19 callgsubr
          hintmask 10110000
          -20 callgsubr
          -38 9 -48 -11 rlinecurve
          -73 -17 -70 -54 -5 -152 -76 -34 rcurveline
          hintmask 11010000
          -85 callgsubr
          239 -70 callgsubr
          -94 39 rlineto
          endchar
        </CharString>
        <CharString name="ff">
          51 -15 callsubr
          hstem
          99 81 193 81 vstem
          4 callsubr
          -322 -105 callsubr
          239 -70 callgsubr
          -94 39 rlineto
          343 vlineto
          -19 callgsubr
          -20 callgsubr
          -41 9 -45 -11 rlinecurve
          -16 -4 -17 -6 -15 -8 -78 callgsubr
          109 -6 55 -18 rrcurveto
          -24 -36 -16 -51 -71 -37 callsubr
        </CharString>
        <CharString name="ffi">
          290 21 -21 402 48 173 65 -48 callgsubr
          203 -3 rlineto
          -322 -105 callsubr
          224 -70 callgsubr
          -79 32 rlineto
          396 -3 callsubr
          -181 -83 callgsubr
        </CharString>
        <CharString name="ffj">
          259 -19 callsubr
          193 81 cntrmask 00001110
          -62 callsubr
          193 -3 rlineto
          -409 -49 callgsubr
          450 -3 callsubr
          -171 -83 callgsubr
        </CharString>
        <CharString name="ffl">
          292 -15 callsubr
          -48 callgsubr
          -55 callsubr
          -44 14 -53 -3 -14 -1 rlinecurve
          -39 -3 -15 -5 -35 -18 -62 20 -64 10 -48 -3 rrcurveto
          -116 -7 -93 -89 -133 -77 callsubr
          52 38 116 -9 53 -20 rrcurveto
          -29 -38 -18 -51 -66 -37 callsubr
        </CharString>
        <CharString name="fi">
          16 -15 callsubr
          173 65 -9 callgsubr
          203 -3 rlineto
          -322 -105 callsubr
          224 -70 callgsubr
          -79 32 rlineto
          396 -3 callsubr
          -181 -65 callgsubr
        </CharString>
        <CharString name="five">
          -70 13 -21 354 81 152 71 8 -20 hstemhm
          72 59 hintmask 00000000
          hintmask 11101000
          135 579 rmoveto
          99 153 -4 0 hvcurveto
          13 71 rlineto
          hintmask 11011000
          -41 callsubr
          hintmask 11101000
          0 -159 -8 -151 vhcurveto
          -13 -292 11 -12 166 2 92 -43 15 -93 rlinecurve
          11 -70 -39 -47 -27 -18 -95 -29 -88 23 -56 24 -17 -59 rcurveline
          11 -19 rlineto
          -5 10 43 -20 70 hhcurveto
          151 120 94 144 -17 hvcurveto
          -15 130 -113 59 -171 8 rrcurveto
          endchar
        </CharString>
        <CharString name="fj">
          -15 -19 callsubr
          vstem
          4 callsubr
          -409 -49 callgsubr
          450 -3 callsubr
          -171 -65 callgsubr
        </CharString>
        <CharString name="fl">
          18 -15 callsubr
          -9 callgsubr
          -55 callsubr
          -48 13 -45 -1 -18 -1 rlinecurve
          -97 -5 -101 -90 -134 vvcurveto
          -37 callgsubr
        </CharString>
        <CharString name="florin">
          -12 -70 -21 472 48 259 -20 hstem
          426 564 rmoveto
          24 -7 60 82 rlineto
          17 -12 -31 32 -70 hhcurveto
          -92 -80 -56 -192 -34 hvcurveto
          -83 -37 7 -22 65 1 -50 -276 -12 -65 -29 -67 -57 -44 rlinecurve
          10 -21 93 27 59 74 16 87 rlinecurve
          53 286 rlineto
          9 hlineto
          110 -4 9 38 -41 callsubr
          -109 hlineto
          24 131 12 40 12 16 rrcurveto
          16 29 31 4 44 hhcurveto
          endchar
        </CharString>
        <CharString name="four">
          -30 13 -21 178 70 418 -20 hstem
          295 84 vstem
          294 640 rmoveto
          -283 -428 14 -42 rlineto
          270 hlineto
          -96 -3 -71 0 vhcurveto
          12 -11 77 8 rlineto
          0 -2 74 76 vvcurveto
          13 7 9 16 vhcurveto
          69 hlineto
          11 64 -41 callsubr
          0 -33 -2 -59 -1 vhcurveto
          -1 117 -2 140 148 vvcurveto
          -20 8 rlineto
          -61 -394 rmoveto
          -15 -8 -9 -14 vhcurveto
          -172 hlineto
          195 293 rlineto
          endchar
        </CharString>
        <CharString name="fraction">
          -13 33 -21 626 -20 hstem
          517 638 -90 callgsubr
        </CharString>
        <CharString name="g">
          -90 -238 57 311 59 212 59 46 -20 hstemhm
          19 77 -58 78 193 80 -28 72 hintmask 00000000
          hintmask 11110110
          381 506 rmoveto
          -21 -16 -27 -30 -21 -26 rrcurveto
          17 -28 -33 9 -38 hhcurveto
          -102 -73 -66 -100 -68 34 -52 55 -26 hvcurveto
          -30 -26 -20 -39 -28 vvcurveto
          -16 6 -13 10 -11 vhcurveto
          hintmask 11111001
          -46 -32 -28 -42 -49 vvcurveto
          -78 73 -52 121 135 85 65 98 88 -70 37 -76 7 vhcurveto
          -90 8 -22 2 -15 3 rrcurveto
          -11 2 -2 2 7 vvcurveto
          15 9 20 18 17 vhcurveto
          -2 12 13 -1 13 hhcurveto
          hintmask 11111010
          103 74 66 99 45 -15 38 -26 28 hvcurveto
          22 13 23 10 25 12 6 15 rcurveline
          -268 -469 rmoveto
          18 -2 7 3 80 -8 rrcurveto
          hintmask 11111001
          54 -5 46 -7 -60 vvcurveto
          -24 -7 -25 -9 -13 vhcurveto
          -9 -15 -47 -18 -55 hhcurveto
          -72 -60 30 62 26 10 30 27 25 hvcurveto
          7 -2 8 -2 8 -1 rrcurveto
          hintmask 11110110
          -40 306 rmoveto
          34 10 44 11 14 vhcurveto
          9 15 32 7 26 hhcurveto
          63 36 -39 -65 -34 -10 -44 -11 -14 hvcurveto
          -9 -15 -32 -7 -26 hhcurveto
          -63 -36 39 65 hvcurveto
          endchar
        </CharString>
        <CharString name="germandbls">
          7 -8 52 -44 -20 648 60 hstemhm
          99 76 89 68 57 68 -9 74 hintmask 00000000
          hintmask 10111100
          389 502 rmoveto
          -38 -36 -87 -32 -89 vvcurveto
          -36 14 -40 48 -34 vhcurveto
          56 -40 rlineto
          hintmask 10111010
          44 -32 22 -24 -38 vvcurveto
          -46 -32 -11 -41 -30 -22 6 10 -18 vhcurveto
          -4 71 -20 5 -41 -87 rlineto
          -14 10 52 -43 80 hhcurveto
          85 55 49 79 57 -28 31 -67 49 hvcurveto
          -66 48 rlineto
          -23 17 -6 20 17 vvcurveto
          hintmask 01111100
          77 125 -1 113 vvcurveto
          70 -48 70 -104 -129 -76 -108 -122 -1 vhcurveto
          -76 -34 -72 callgsubr
          70 -323 hlineto
          -104 callgsubr
          148 hlineto
          8 9 rlineto
          0 -10 28 42 vvcurveto
          371 vlineto
          88 9 48 10 16 vhcurveto
          17 19 33 9 32 hhcurveto
          72 44 -44 -82 -5 hvcurveto
          endchar
        </CharString>
        <CharString name="grave">
          -243 573 -21 136 -20 hstem
          240 552 -84 callsubr
        </CharString>
        <CharString name="greater">
          -89 106 -21 460 -20 hstem
          410 288 rmoveto
          7 33 rlineto
          17 vlineto
          -331 207 -26 -32 1 -16 271 -182 -275 -184 14 -39 15 -7 rlineto
          endchar
        </CharString>
        <CharString name="guillemotleft">
          0 27 -21 438 -20 hstem
          263 6 rmoveto
          31 32 -169 187 169 187 -31 32 -239 -202 rlineto
          -34 vlineto
          440 -190 rmoveto
          34 27 -142 180 142 180 -34 27 -203 -193 rlineto
          -28 vlineto
          endchar
        </CharString>
        <CharString name="guillemotright">
          0 27 -21 438 -20 hstem
          512 208 rmoveto
          34 vlineto
          -239 202 -31 -32 169 -187 -169 -187 31 -32 rlineto
          2 205 rmoveto
          28 vlineto
          -203 193 -34 -27 142 -180 -142 -180 34 -27 rlineto
          endchar
        </CharString>
        <CharString name="guilsinglleft">
          11 callsubr
          237 9 rmoveto
          36 32 -141 184 141 184 -36 32 -207 -201 rlineto
          -30 vlineto
          endchar
        </CharString>
        <CharString name="guilsinglright">
          11 callsubr
          279 210 rmoveto
          30 vlineto
          -207 201 -36 -32 141 -184 -141 -184 36 -32 rlineto
          endchar
        </CharString>
        <CharString name="h">
          -3 -4 callsubr
          -33 callgsubr
          86 -35 callsubr
          370 -70 callsubr
          102 -51 51 -93 -4 callgsubr
          vhcurveto
          260 3 callgsubr
          -135 -87 callsubr
          -529 -105 callsubr
          224 -70 callgsubr
          -79 32 rlineto
          322 vlineto
          6 24 -36 callgsubr
          endchar
        </CharString>
        <CharString name="hyphen">
          -138 221 -21 64 -20 hstem
          60 217 -42 callsubr
          30 227 7 callsubr
          -139 -8 -117 vhcurveto
          endchar
        </CharString>
        <CharString name="i">
          21 -21 562 -6 callgsubr
          81 100 -81 81 -9 callsubr
          -92 callgsubr
          hintmask 11100000
          -100 563 rmoveto
          -106 callsubr
          endchar
        </CharString>
        <CharString name="iacute">
          21 -21 695 -86 callsubr
          -165 518 -86 callgsubr
        </CharString>
        <CharString name="icircumflex">
          21 -21 688 -86 callsubr
          -174 523 -91 callgsubr
        </CharString>
        <CharString name="idieresis">
          21 -21 562 -6 callgsubr
          -12 110 2 81 -5 110 hintmask 00000000
          hintmask 11110000
          -92 callgsubr
          -193 563 rmoveto
          -106 callsubr
          hintmask 11101000
          188 -95 callsubr
        </CharString>
        <CharString name="igrave">
          21 -21 688 -86 callsubr
          20 498 -84 callsubr
        </CharString>
        <CharString name="j">
          -297 -2 callsubr
          800 -6 callgsubr
          70 100 -81 81 -9 callsubr
          -40 callgsubr
          hintmask 11100000
          -100 617 rmoveto
          -106 callsubr
          endchar
        </CharString>
        <CharString name="k">
          -23 21 -21 450 -20 258 -20 hstem
          86 81 vstem
          381 hmoveto
          127 -70 callgsubr
          -76 32 -172 205 107 104 18 18 16 17 26 11 rlinecurve
          45 19 -51 callsubr
          -202 hlineto
          -6 -22 71 -32 -157 -154 rlineto
          -11 438 -41 callgsubr
        </CharString>
        <CharString name="l">
          -275 21 -21 688 -20 hstem
          90 81 vstem
          171 680 -41 callgsubr
        </CharString>
        <CharString name="less">
          -89 106 -21 460 -20 hstem
          37 342 rmoveto
          -7 -33 rlineto
          -17 vlineto
          331 -207 26 32 -1 16 -271 182 275 184 -14 39 -15 7 rlineto
          endchar
        </CharString>
        <CharString name="logicalnot">
          42 178 -21 148 59 2 -20 hstemhm
          454 55 -9 callsubr
          61 319 -42 callsubr
          25 257 -1 -1 100 hvcurveto
          -1 -99 -1 -38 0 vvcurveto
          12 -11 47 11 rlineto
          0 -2 135 51 vvcurveto
          hintmask 10110000
          -41 callsubr
          hintmask 11010000
          0 -236 -7 callgsubr
          endchar
        </CharString>
        <CharString name="lslash">
          -255 21 -21 688 -20 hstem
          100 81 vstem
          181 -12 callgsubr
          -254 vlineto
          -95 -56 9 -40 16 -5 14 8 26 15 30 16 rlinecurve
          -213 -105 callsubr
          224 -70 callgsubr
          -79 32 rlineto
          283 vlineto
          53 30 47 25 0 vvcurveto
          -17 51 -15 5 rlineto
          0 -27 -18 -41 -26 vhcurveto
          endchar
        </CharString>
        <CharString name="m">
          295 -4 callsubr
          hstem
          100 81 203 -24 callgsubr
          cntrmask 00111000
          668 -70 callsubr
          102 -49 51 -99 -57 -55 -17 -28 -55 vhcurveto
          30 -24 -38 15 -51 hhcurveto
          -4 callgsubr
          hvcurveto
          -4 2 -2 28 -20 8 -129 -87 callsubr
          -299 -105 callsubr
          224 -70 callgsubr
          -79 32 rlineto
          322 vlineto
          6 24 -36 callgsubr
          -74 callgsubr
          26 -4 22 -6 20 vhcurveto
          9 34 -36 callgsubr
          endchar
        </CharString>
        <CharString name="minus">
          -2 316 -21 61 -20 hstem
          63 309 -46 callsubr
          endchar
        </CharString>
        <CharString name="mu">
          30 -2 callsubr
          230 69 397 -20 hstem
          107 -35 callsubr
          472 -94 callsubr
          -321 vlineto
          -107 -11 -177 0 vhcurveto
          12 -11 rlineto
          76 hlineto
          0 -6 165 79 vvcurveto
          -8 18 24 -6 31 hhcurveto
          67 55 27 11 20 hvcurveto
          -76 callgsubr
          -69 24 rlineto
          endchar
        </CharString>
        <CharString name="multiply">
          -44 154 -21 385 -20 hstem
          62 487 rmoveto
          -1 -16 143 -146 -142 -145 1 -16 38 -31 145 149 146 -149 38 32 1 16 -143 144 142 147 -1 16 -37 30 -146 -150 -148 149 rlineto
          endchar
        </CharString>
        <CharString name="n">
          11 -4 callsubr
          hstem
          100 -35 callsubr
          384 -70 callsubr
          101 -50 52 -94 -4 callgsubr
          vhcurveto
          -4 2 -2 28 -20 8 -129 -87 callsubr
          -299 -105 callsubr
          224 -70 callgsubr
          -79 32 rlineto
          322 vlineto
          6 24 -36 callgsubr
          endchar
        </CharString>
        <CharString name="nine">
          -27 13 -21 270 69 263 64 hstem
          31 87 257 86 vstem
          102 25 rmoveto
          12 -33 155 30 173 80 19 253 rlinecurve
          172 13 -69 131 -157 hhcurveto
          -119 -98 -75 -127 -93 53 -101 142 64 46 21 21 31 hvcurveto
          -31 -171 -112 -60 -122 -48 rrcurveto
          149 306 rmoveto
          -79 -54 43 101 59 18 29 13 16 hvcurveto
          7 15 29 8 35 hhcurveto
          113 42 -85 -141 -8 hvcurveto
          -13 -20 -44 -24 -60 hhcurveto
          endchar
        </CharString>
        <CharString name="ntilde">
          11 -4 callsubr
          225 -20 hstem
          100 -35 callsubr
          384 -70 callsubr
          101 -50 52 -94 -4 callgsubr
          vhcurveto
          -4 2 -2 28 -20 8 -129 -87 callsubr
          -299 -105 callsubr
          224 -70 callgsubr
          -79 32 rlineto
          322 vlineto
          6 24 -36 callgsubr
          -268 286 -92 callsubr
        </CharString>
        <CharString name="numbersign">
          63 33 -21 185 52 150 53 -1 -20 207 13 callgsubr
          hintmask 11101000
          58 412 rmoveto
          10 10 callgsubr
          -21 -150 rlineto
          -120 hlineto
          -17 -39 9 10 callgsubr
          -26 -174 10 -11 57 10 23 175 rlineto
          39 40 0 -1 39 hvcurveto
          -7 -50 -9 -54 -10 -69 10 -11 rcurveline
          57 10 22 174 rlineto
          68 -1 51 0 0 vvcurveto
          17 46 -9 12 rlineto
          0 -48 -1 -71 -1 vhcurveto
          20 147 rlineto
          68 -1 51 0 0 vvcurveto
          18 47 -9 12 rlineto
          0 -48 -1 -72 -1 vhcurveto
          27 173 -11 11 -56 -10 -23 -175 rlineto
          hintmask 11011000
          -119 -2 27 176 -11 11 -56 -10 -24 -177 rlineto
          -118 hlineto
          hintmask 11101000
          174 -52 rmoveto
          40 40 0 -1 39 hvcurveto
          -20 -148 rlineto
          -37 -41 0 -1 -41 hvcurveto
          endchar
        </CharString>
        <CharString name="o">
          -25 callsubr
          -102 callsubr
          endchar
        </CharString>
        <CharString name="oacute">
          -25 callsubr
          237 -20 -102 callsubr
          109 350 -86 callgsubr
        </CharString>
        <CharString name="ocircumflex">
          -71 callgsubr
          70 355 -91 callgsubr
        </CharString>
        <CharString name="odieresis">
          -25 callsubr
          104 -6 callgsubr
          38 85 -29 -27 callsubr
          -19 85 hintmask 00000000
          hintmask 11110010
          -103 callsubr
          hintmask 11101100
          56 395 rmoveto
          -32 23 -23 32 31 24 23 32 -96 callsubr
        </CharString>
        <CharString name="oe">
          264 -39 callsubr
          -13 callsubr
          260 85 215 80 vstem
          38 222 rmoveto
          -147 90 -83 115 77 72 37 56 31 vhcurveto
          -55 28 68 -38 77 hhcurveto
          85 57 -87 callgsubr
          -60 72 -100 -71 -71 -36 -58 -33 vhcurveto
          57 -29 -68 37 -77 hhcurveto
          -108 -108 -21 callsubr
          91 44 -63 -109 2 hvcurveto
          -11 vlineto
          -73 -22 -48 -15 -19 vhcurveto
          -59 callgsubr
          459 158 -80 callsubr
          endchar
        </CharString>
        <CharString name="ograve">
          -71 callgsubr
          304 330 -84 callsubr
        </CharString>
        <CharString name="one">
          -186 21 13 callsubr
          147 85 vstem
          30 553 rmoveto
          6 -22 30 5 40 5 41 4 rlinecurve
          -454 vlineto
          -100 callsubr
          -75 -31 -72 callgsubr
          275 -70 callgsubr
          -96 39 rlineto
          589 vlineto
          -19 8 rlineto
          endchar
        </CharString>
        <CharString name="onehalf">
          103 3 50 213 51 329 -20 hstem
          105 64 349 66 vstem
          52 592 -78 callsubr
          241 -643 -54 callgsubr
          183 591 -90 callgsubr
        </CharString>
        <CharString name="onequarter">
          102 1 49 223 47 326 -20 hstem
          105 64 364 61 vstem
          589 230 -82 callsubr
          -537 362 -66 callsubr
        </CharString>
        <CharString name="onesuperior">
          -282 354 -21 313 -20 hstem
          104 64 vstem
          51 592 -78 callsubr
          endchar
        </CharString>
        <CharString name="ordfeminine">
          -193 333 -21 54 64 187 41 hstemhm
          75 171 -57 57 hintmask 00000000
          hintmask 11101000
          245 473 rmoveto
          0 1 78 12 vvcurveto
          73 -36 22 -45 -48 -33 -26 -11 -11 vhcurveto
          34 -48 20 6 2 34 rlineto
          1 2 11 3 11 hhcurveto
          28 9 -20 -19 -1 hvcurveto
          -20 vlineto
          hintmask 11110000
          -75 -12 -39 -16 -39 vvcurveto
          -31 23 -30 41 23 21 10 9 11 vhcurveto
          14 -14 13 -4 50 7 6 24 rlineto
          -120 12 rmoveto
          -23 -7 18 18 1 hvcurveto
          hintmask 11101000
          6 4 21 7 34 4 rrcurveto
          -45 vlineto
          -2 -4 -17 -4 -11 hhcurveto
          -101 -147 -42 callsubr
          30 182 -3 -14 callsubr
          46 -41 callsubr
          0 -124 -4 -87 vhcurveto
          endchar
        </CharString>
        <CharString name="ordmasculine">
          -178 333 -21 54 64 47 134 0 47 hstemhm
          64 67 96 67 hintmask 00000000
          hintmask 11101100
          64 327 -42 callsubr
          30 178 -3 -14 callsubr
          46 -41 callsubr
          0 -120 -4 -87 vhcurveto
          55 181 rmoveto
          36 11 18 5 5 vhcurveto
          3 8 9 2 10 hhcurveto
          39 14 -29 -41 -36 -11 -18 -5 -5 hvcurveto
          -3 -8 -9 -2 -10 hhcurveto
          -39 -14 30 40 hvcurveto
          -67 -2 rmoveto
          -61 42 -54 71 66 51 48 65 vhcurveto
          hintmask 11011100
          59 -42 56 -72 -63 -53 -44 -69 vhcurveto
          endchar
        </CharString>
        <CharString name="oslash">
          -30 -59 -21 72 64 338 64 62 11 callgsubr
          38 222 rmoveto
          -86 30 -64 49 -39 vhcurveto
          -20 -33 -20 -35 -20 -34 12 -11 rcurveline
          55 12 13 26 14 25 13 24 rlinecurve
          -10 25 28 -5 30 hhcurveto
          115 106 74 162 84 -29 63 -47 38 hvcurveto
          57 96 -12 11 -55 -12 -36 -67 rlineto
          11 -26 -30 6 -32 hhcurveto
          -114 -106 -21 callsubr
          26 21 -5 -10 19 hvcurveto
          -53 -97 -51 -90 -51 -89 rrcurveto
          -23 31 -11 44 58 vvcurveto
          229 106 rmoveto
          21 -30 10 -44 -54 vvcurveto
          -84 -24 -42 -13 -17 vhcurveto
          -7 -17 -37 -8 -33 hhcurveto
          -23 -21 4 8 -17 hvcurveto
          52 96 52 90 50 88 rrcurveto
          endchar
        </CharString>
        <CharString name="otilde">
          -25 callsubr
          225 -20 -102 callsubr
          50 357 -92 callsubr
        </CharString>
        <CharString name="p">
          -10 8 callgsubr
          hstem
          89 81 233 85 vstem
          162 -11 callgsubr
          -527 -105 callsubr
          224 -70 callgsubr
          -79 32 rlineto
          175 vlineto
          -5 28 41 -4 27 hhcurveto
          119 103 76 159 118 -57 113 -124 -63 -60 -29 -9 -16 hvcurveto
          -4 2 rlineto
          6 -46 rmoveto
          -56 callsubr
        </CharString>
        <CharString name="paragraph">
          -39 657 -20 hstem
          306 69 vstem
          306 105 rmoveto
          -80 -9 -21 -6 -11 vhcurveto
          -5 -3 -42 -10 -41 4 -59 6 -40 23 -4 2 -20 -49 rcurveline
          11 -19 7 -5 43 -17 49 -2 rlinecurve
          123 -6 62 82 125 vvcurveto
          443 vlineto
          20 17 8 24 10 vhcurveto
          -63 callsubr
          2 -37 -95 5 -43 hhcurveto
          -143 -109 -57 -135 -136 111 -64 125 10 13 0 1 9 hvcurveto
          endchar
        </CharString>
        <CharString name="parenleft">
          5 callsubr
          37 81 vstem
          37 292 rmoveto
          -308 188 -128 36 -24 vhcurveto
          14 17 rlineto
          -21 24 -136 146 280 vvcurveto
          249 108 137 49 56 vhcurveto
          -14 17 rlineto
          -34 -21 -190 -136 -309 vvcurveto
          endchar
        </CharString>
        <CharString name="parenright">
          5 callsubr
          167 81 vstem
          248 292 rmoveto
          309 -190 136 -34 21 vhcurveto
          -14 -17 rlineto
          49 -56 108 -137 -249 vvcurveto
          -280 -136 -146 -21 -24 vhcurveto
          14 -17 rlineto
          36 24 188 128 308 vvcurveto
          endchar
        </CharString>
        <CharString name="percent">
          173 -5 callgsubr
          34 4 callgsubr
          vstem
          456 164 -58 callsubr
          -298 352 -58 callsubr
          574 160 -90 callgsubr
        </CharString>
        <CharString name="period">
          -322 -8 -10 callgsubr
          52 110 vstem
          52 47 rmoveto
          -106 callsubr
          endchar
        </CharString>
        <CharString name="periodcentered">
          -308 165 -10 callgsubr
          59 110 vstem
          59 220 rmoveto
          -106 callsubr
          endchar
        </CharString>
        <CharString name="perthousand">
          392 -5 callgsubr
          37 4 callgsubr
          157 63 vstem
          397 145 rmoveto
          -108 66 -37 63 52 44 26 32 21 vhcurveto
          -32 18 40 -26 53 hhcurveto
          70 75 46 116 108 -66 47 -64 -50 -44 -29 -36 -23 hvcurveto
          37 -19 -42 28 -49 hhcurveto
          -70 -75 -56 -116 hvcurveto
          -360 333 -46 callgsubr
          422 -314 -77 callgsubr
          -360 333 -77 callgsubr
          580 -334 rmoveto
          50 11 29 -80 callgsubr
          36 80 hvcurveto
          -68 475 -90 callgsubr
        </CharString>
        <CharString name="plus">
          -27 118 -21 199 58 201 -20 hstem
          225 58 vstem
          30 309 -42 callsubr
          13 83 0 -1 88 hvcurveto
          -106 -1 -82 6 callgsubr
          90 98 vvcurveto
          95 -1 88 0 0 vvcurveto
          -27 callgsubr
          0 -80 -1 -104 -1 vhcurveto
          190 vlineto
          -12 11 -45 -12 rlineto
          -61 0 -65 -1 -63 vhcurveto
          -183 hlineto
          endchar
        </CharString>
        <CharString name="plusminus">
          -70 105 -21 59 245 0 58 151 -20 hstemhm
          205 57 hintmask 00000000
          hintmask 11011000
          59 401 -42 callsubr
          13 58 0 -1 63 hvcurveto
          -84 -1 -54 6 callgsubr
          65 73 vvcurveto
          70 -1 63 0 0 vvcurveto
          -27 callgsubr
          hintmask 10111000
          0 -51 -1 -83 -1 vhcurveto
          140 vlineto
          -12 11 -45 -12 rlineto
          -139 -134 vlineto
          -7 -348 -42 callsubr
          31 285 -31 callgsubr
          hintmask 11011000
          0 -126 -7 callgsubr
          endchar
        </CharString>
        <CharString name="q">
          -30 -207 -21 220 69 333 64 8 callsubr
          -11 callsubr
          -19 8 -41 -13 rlineto
          7 -30 -54 6 -33 hhcurveto
          -119 -103 -76 -159 -119 58 -112 123 54 56 22 15 27 hvcurveto
          -178 -105 callsubr
          224 -70 callgsubr
          -79 32 rlineto
          -81 248 -38 callsubr
        </CharString>
        <CharString name="question">
          -144 -7 110 482 73 hstem
          95 110 78 78 vstem
          171 268 rmoveto
          112 49 78 55 103 vvcurveto
          117 -99 66 -124 -57 -32 -14 -4 -8 vhcurveto
          -11 -18 11 -54 rlineto
          9 28 42 8 49 hhcurveto
          30 36 -3 -9 24 hvcurveto
          17 -15 16 -35 -43 vvcurveto
          -81 -58 -32 -114 -49 vhcurveto
          14 -138 38 2 rlineto
          -68 -134 rmoveto
          -33 24 -22 30 33 23 25 30 30 -22 25 -33 -32 -23 -23 -32 vhcurveto
          endchar
        </CharString>
        <CharString name="questiondown">
          -150 -207 73 482 -10 callgsubr
          28 78 78 110 vstem
          218 183 rmoveto
          -112 -49 -78 -55 -103 vvcurveto
          -117 99 -66 124 57 32 14 4 8 vhcurveto
          11 18 -11 54 rlineto
          -9 -28 -42 -8 -49 hhcurveto
          -30 -36 3 9 -24 hvcurveto
          -17 15 -16 35 43 vvcurveto
          81 58 32 114 49 vhcurveto
          -14 138 -38 -2 rlineto
          68 134 rmoveto
          33 -24 22 -30 -33 -23 -25 -30 -30 22 -25 33 32 23 23 32 vhcurveto
          endchar
        </CharString>
        <CharString name="quotedbl">
          -215 -26 callsubr
          69 -10 -25 callgsubr
          endchar
        </CharString>
        <CharString name="quotedblbase">
          -165 -106 -23 callsubr
          100 61 99 61 vstem
          51 77 -64 callsubr
        </CharString>
        <CharString name="quotedblleft">
          -175 -17 callgsubr
          47 61 99 -45 callsubr
          216 26 -60 callgsubr
          endchar
        </CharString>
        <CharString name="quotedblright">
          -172 -17 callgsubr
          104 61 99 61 vstem
          55 662 -64 callsubr
        </CharString>
        <CharString name="quoteleft">
          -335 -17 callgsubr
          47 -45 callsubr
          endchar
        </CharString>
        <CharString name="quoteright">
          -332 -17 callgsubr
          104 61 vstem
          55 662 -93 callsubr
          endchar
        </CharString>
        <CharString name="quotesinglbase">
          -50 callsubr
        </CharString>
        <CharString name="quotesingle">
          -360 -26 callsubr
          endchar
        </CharString>
        <CharString name="r">
          -149 21 -21 458 -20 hstemhm
          100 81 0 111 hintmask 00000000
          hintmask 11100000
          173 -11 callgsubr
          -299 -105 callsubr
          234 -70 callgsubr
          -89 32 rlineto
          317 vlineto
          hintmask 11010000
          6 14 58 15 39 hhcurveto
          -76 vlineto
          24 -7 65 87 -12 23 -38 31 -28 8 rlinecurve
          -47 -6 -71 -38 -4 -3 -4 2 rcurveline
          endchar
        </CharString>
        <CharString name="registered">
          294 -39 56 116 205 146 41 108 56 hstem
          43 78 176 65 118 75 154 12 callgsubr
          168 -129 199 204 173 135 234 230 -168 129 -199 -202 -175 9 callsubr
          190 120 115 171 172 125 -116 -194 -191 -120 -115 -170 -171 -127 115 196 vhcurveto
          273 -31 rmoveto
          15 0 -9 -4 2 hvcurveto
          45 -96 33 -49 18 -10 86 4 rcurveline
          4 23 -23 -1 -26 6 -58 111 rlinecurve
          -13 25 -2 6 -1 4 rrcurveto
          46 11 35 35 59 vvcurveto
          72 -52 41 -105 -40 -109 -6 0 vhcurveto
          -5 -19 53 -22 rlineto
          -290 vlineto
          -11 -6 -4 -13 -6 vhcurveto
          -34 -15 5 -19 rlineto
          158 hlineto
          3 19 -13 7 -21 10 -14 6 rlinecurve
          122 vlineto
          174 vmoveto
          8 4 5 10 vhcurveto
          31 hlineto
          55 18 -39 -46 -26 -6 -17 -11 -10 hvcurveto
          1 vlineto
          -6 -13 -16 -3 -34 hhcurveto
          -38 hlineto
          endchar
        </CharString>
        <CharString name="ring">
          -164 537 36 100 36 hstem
          90 57 78 57 vstem
          147 626 -82 callgsubr
        </CharString>
        <CharString name="s">
          -135 -8 56 356 54 -81 callgsubr
          endchar
        </CharString>
        <CharString name="scaron">
          -135 -8 56 356 54 230 -20 -81 callgsubr
          -89 164 -65 callsubr
        </CharString>
        <CharString name="section">
          -116 -198 73 710 73 hstem
          56 70 12 52 40 52 12 70 vstem
          185 -35 rmoveto
          4 23 1 24 18 146 -64 142 131 vvcurveto
          78 23 35 10 13 vhcurveto
          6 19 37 4 33 hhcurveto
          56 58 -11 -3 11 hvcurveto
          16 58 -11 19 rlineto
          2 -4 -25 8 -50 hhcurveto
          -145 -98 -69 -144 hvcurveto
          -131 82 -150 -178 vvcurveto
          -13 vlineto
          10 -6 rlineto
          87 528 rmoveto
          -4 -23 -1 -24 -18 -146 64 -142 -131 vvcurveto
          -78 -23 -35 -10 -13 vhcurveto
          -6 -19 -37 -4 -33 hhcurveto
          -56 -58 11 3 -11 hvcurveto
          -16 -58 11 -19 rlineto
          -2 4 25 -8 50 hhcurveto
          145 98 69 144 hvcurveto
          131 -82 150 178 vvcurveto
          13 vlineto
          -10 6 rlineto
          endchar
        </CharString>
        <CharString name="semicolon">
          -301 -106 -21 475 -6 callgsubr
          65 110 -61 61 hintmask 00000000
          hintmask 11100000
          65 77 rmoveto
          3 -20 rlineto
          hintmask 11010000
          -93 callgsubr
          hintmask 11100000
          -56 300 rmoveto
          -106 callsubr
          endchar
        </CharString>
        <CharString name="seven">
          -78 13 -21 586 72 hstem
          443 650 rmoveto
          -406 hlineto
          -10 -152 30 -7 47 86 273 2 -113 -172 -74 -144 -91 -263 rlinecurve
          20 -8 85 9 56 232 70 171 125 202 rlinecurve
          endchar
        </CharString>
        <CharString name="six">
          -25 -8 64 264 69 269 -20 hstem
          393 87 vstem
          409 625 rmoveto
          -12 33 -165 -30 -164 -95 -20 -243 rlinecurve
          -167 -14 64 -131 164 hhcurveto
          117 101 66 133 96 -52 102 -142 -64 -46 -20 -21 -31 hvcurveto
          32 163 106 68 126 46 rrcurveto
          -150 -305 rmoveto
          80 54 -43 -104 -53 -14 -31 -15 -18 hvcurveto
          -16 -6 -27 -8 -42 -1 rrcurveto
          -120 -31 104 123 9 hvcurveto
          12 16 46 25 60 hhcurveto
          endchar
        </CharString>
        <CharString name="slash">
          -120 -10 -21 742 -20 hstem
          323 701 rmoveto
          -123 -298 -64 -155 -114 -268 12 -11 rcurveline
          59 10 123 298 65 155 113 268 9 callgsubr
        </CharString>
        <CharString name="space">
          -316 endchar
        </CharString>
        <CharString name="sterling">
          -54 309 52 227 70 hstem
          98 70 vstem
          39 323 -42 callsubr
          7 24 0 -1 31 hvcurveto
          13 -99 6 -111 -81 -64 22 -40 rcurveline
          170 58 89 -105 121 69 -14 57 rcurveline
          -14 4 -80 -37 -116 59 -103 -48 rlinecurve
          62 64 0 99 -8 93 rrcurveto
          86 -2 97 -1 0 vvcurveto
          -27 callgsubr
          0 -94 -4 -94 -2 vhcurveto
          -3 31 -3 31 27 vvcurveto
          76 23 39 10 13 vhcurveto
          6 19 27 4 34 hhcurveto
          54 59 -10 -3 11 hvcurveto
          16 54 -11 19 rlineto
          2 -4 -32 8 -46 hhcurveto
          -138 -92 -74 -142 -26 3 -27 4 -30 hvcurveto
          -54 hlineto
          endchar
        </CharString>
        <CharString name="t">
          -231 -8 48 362 48 101 -20 hstem
          86 81 vstem
          86 89 rmoveto
          -55 33 -42 68 47 63 20 0 vhcurveto
          -5 28 rlineto
          -57 hlineto
          -52 -16 25 47 hvcurveto
          292 vlineto
          120 -4 10 38 -41 callsubr
          -119 94 hlineto
          -37 7 -44 -93 -76 -34 -72 callgsubr
          70 hlineto
          endchar
        </CharString>
        <CharString name="thorn">
          -30 8 callgsubr
          -33 callgsubr
          69 79 235 85 vstem
          150 422 rmoveto
          -2 3 rlineto
          255 3 callgsubr
          -135 -87 callsubr
          -757 -105 callsubr
          224 -70 callgsubr
          -79 32 rlineto
          175 vlineto
          -5 28 41 -4 27 hhcurveto
          119 103 0 callsubr
          -61 -58 -27 -10 -18 hvcurveto
          -45 vmoveto
          -56 callsubr
        </CharString>
        <CharString name="three">
          -46 -8 73 523 70 hstem
          114 228 0 98 vstem
          431 487 rmoveto
          99 -83 72 -116 -112 -80 -66 -10 -12 vhcurveto
          60 -100 24 7 5 84 rlineto
          6 14 33 9 40 hhcurveto
          99 39 -56 -63 -54 -28 -45 -77 -17 hvcurveto
          -24 1 -36 -1 -27 -6 -10 -38 rcurveline
          11 -12 21 -7 37 -2 32 5 rlinecurve
          77 -10 33 -67 -57 vvcurveto
          -30 -9 -28 -9 -13 vhcurveto
          -10 -22 -54 -13 -62 hhcurveto
          -54 -50 10 6 -23 hvcurveto
          -16 -62 11 -19 rlineto
          -2 8 37 -6 49 hhcurveto
          188 95 90 96 66 -44 57 -64 25 hvcurveto
          56 33 43 56 72 vvcurveto
          endchar
        </CharString>
        <CharString name="threequarters">
          69 21 -21 82 44 520 -20 hstem
          107 64 268 59 vstem
          440 308 rmoveto
          -128 -196 5 -30 rlineto
          122 hlineto
          -44 -1 -30 0 vhcurveto
          9 -8 52 4 rlineto
          0 -1 52 26 vvcurveto
          43 hlineto
          3 38 -7 9 rlineto
          0 -25 -1 -14 vhcurveto
          -1 55 -1 63 67 vvcurveto
          -19 6 rlineto
          -38 -193 rmoveto
          -62 hlineto
          63 99 rlineto
          -386 367 -66 callsubr
        </CharString>
        <CharString name="threesuperior">
          -235 328 49 223 47 hstem
          191 61 vstem
          247 557 -82 callsubr
          endchar
        </CharString>
        <CharString name="tilde">
          -139 584 -21 120 -20 hstem
          37 579 -92 callsubr
        </CharString>
        <CharString name="trademark">
          108 428 222 -31 31 hstemhm
          138 46 113 36 173 46 hintmask 00000000
          hintmask 10111000
          552 622 rmoveto
          30 6 -2 22 rlineto
          -85 hlineto
          -67 -155 -62 149 -9 6 rlineto
          -88 -22 hlineto
          28 -6 1 -166 -29 -7 3 -21 rlineto
          83 hlineto
          2 22 -24 6 rlineto
          132 2 vlineto
          68 -156 14 -4 23 7 63 144 rlineto
          3 -122 hlineto
          -24 -7 2 -22 rlineto
          96 hlineto
          1 21 -29 7 rlineto
          -298 194 rmoveto
          -186 -59 hlineto
          19 -3 rlineto
          hintmask 01111000
          4 9 7 13 5 9 rrcurveto
          35 -163 hlineto
          -30 -7 rlineto
          hintmask 10111000
          2 -21 rlineto
          100 hlineto
          3 21 -29 7 rlineto
          163 32 vlineto
          17 -31 21 3 rlineto
          endchar
        </CharString>
        <CharString name="two">
          -22 0 72 512 74 hstem
          129 218 vstem
          45 hmoveto
          416 hlineto
          10 152 -30 7 -47 -86 -236 -2 rlineto
          138 121 144 129 148 vvcurveto
          114 -85 75 -111 -117 -82 -82 -8 -7 vhcurveto
          65 -90 24 7 5 84 rlineto
          7 15 37 8 34 hhcurveto
          86 43 -51 -82 -107 -75 -92 -239 -208 hvcurveto
          endchar
        </CharString>
        <CharString name="twosuperior">
          -210 333 50 213 51 hstem
          193 66 vstem
          61 333 -54 callgsubr
          endchar
        </CharString>
        <CharString name="u">
          -2 -8 69 397 -95 callgsubr
          endchar
        </CharString>
        <CharString name="uacute">
          -2 -8 69 634 -95 callgsubr
          -279 518 -86 callgsubr
        </CharString>
        <CharString name="ucircumflex">
          -2 -8 69 627 -95 callgsubr
          -333 523 -91 callgsubr
        </CharString>
        <CharString name="udieresis">
          -2 -8 69 501 -6 callgsubr
          83 81 -63 -27 callsubr
          -42 81 hintmask 00000000
          hintmask 11100100
          -98 callgsubr
          hintmask 11011000
          -347 563 rmoveto
          -32 23 -23 32 31 24 23 32 -96 callsubr
        </CharString>
        <CharString name="ugrave">
          -2 -8 69 627 -95 callgsubr
          -114 498 -84 callsubr
        </CharString>
        <CharString name="underscore">
          60 0 51 -38 -21 hstemhm
          hintmask 00000000
          hintmask 10000000
          57 12 -42 callsubr
          hintmask 01000000
          101 356 -8 -14 callsubr
          47 rlineto
          hintmask 10000000
          -41 callsubr
          -456 hlineto
          endchar
        </CharString>
        <CharString name="uni00A0">
          -316 endchar
        </CharString>
        <CharString name="v">
          -24 13 -21 458 -20 hstem
          170 363 rmoveto
          -7 19 -3 -48 callsubr
          155 -396 20 -8 46 8 143 363 -58 callgsubr
          -300 rlineto
          endchar
        </CharString>
        <CharString name="w">
          218 13 -21 458 -20 24 13 callgsubr
          hintmask 10100000
          387 454 rmoveto
          -75 -11 37 -96 rlineto
          -20 -93 -71 -162 0 vvcurveto
          -90 271 -7 20 -3 16 24 10 rlinecurve
          45 19 rlineto
          hintmask 11000000
          -51 callsubr
          -220 hlineto
          -6 -22 71 -32 141 -396 20 -8 60 8 rlineto
          0 64 141 33 110 vhcurveto
          30 -81 28 -77 33 -93 20 -8 rcurveline
          60 8 115 363 6 18 5 17 22 9 rlinecurve
          49 21 -51 callsubr
          -188 hlineto
          -6 -22 71 -32 -97 -304 -34 91 -35 110 -51 153 rlinecurve
          endchar
        </CharString>
        <CharString name="x">
          -32 21 -21 450 -20 hstem
          394 373 rmoveto
          9 12 10 11 26 11 49 21 rcurveline
          -51 callsubr
          -205 hlineto
          -6 -22 76 -32 -84 -117 -117 171 rlineto
          -128 hlineto
          -6 -22 76 -32 118 -173 -105 -146 -11 -16 -14 -10 -19 -8 rlinecurve
          -49 -21 -72 callgsubr
          205 -70 callgsubr
          -76 32 88 127 126 -181 rlineto
          130 -70 callgsubr
          -75 30 -128 186 rlineto
          endchar
        </CharString>
        <CharString name="y">
          2 callsubr
          -20 hstem
          -89 callsubr
          endchar
        </CharString>
        <CharString name="yacute">
          2 callsubr
          -20 265 -20 hstem
          -89 callsubr
          -104 466 -86 callgsubr
        </CharString>
        <CharString name="ydieresis">
          2 callsubr
          112 0 -6 callgsubr
          114 -27 callsubr
          hintmask 00000000
          hintmask 11011000
          -89 callsubr
          -162 511 rmoveto
          -51 callgsubr
          vhcurveto
          hintmask 10111000
          -96 callsubr
        </CharString>
        <CharString name="yen">
          137 21 -21 203 52 60 53 282 -20 hstem
          293 85 vstem
          118 326 rmoveto
          10 -11 rlineto
          414 hlineto
          10 43 -10 12 rlineto
          0 -14 0 -108 -2 vhcurveto
          130 199 -61 callsubr
          -136 202 -11 17 7 11 21 10 rlinecurve
          47 23 -51 callsubr
          -241 hlineto
          -6 -22 70 -32 152 -230 rlineto
          -118 hlineto
          -11 -150 -42 callsubr
          41 61 -1 62 hhcurveto
          -120 -73 callsubr
          145 vlineto
          89 -1 74 -1 0 vvcurveto
          11 43 -41 callsubr
          -411 hlineto
          221 102 rmoveto
          -2 -1 0 1 -1 hvcurveto
          7 1 rlineto
          -1 -1 -1 -1 -1 hhcurveto
          endchar
        </CharString>
        <CharString name="z">
          -107 0 48 354 48 -49 callsubr
          endchar
        </CharString>
        <CharString name="zcaron">
          -107 0 48 354 48 238 -20 -49 callsubr
          -196 141 -65 callsubr
        </CharString>
        <CharString name="zero">
          54 -5 callsubr
          hstem
          49 93 307 93 vstem
          142 338 rmoveto
          132 30 74 18 28 vhcurveto
          14 25 39 10 33 hhcurveto
          118 44 -125 -159 -132 -30 -74 -18 -28 hvcurveto
          -14 -25 -39 -10 -33 hhcurveto
          -118 -44 125 159 hvcurveto
          -93 -11 rmoveto
          -186 73 -149 170 162 88 134 197 186 -79 149 -171 -161 -82 -133 -198 vhcurveto
          endchar
        </CharString>
      <CharString index="0">
        192 57 rmoveto
        -32 -45 14 -53 callsubr
        47 21 97 5 -2 -116 rcurveline
        -5 -15 -37 -12 -29 hhcurveto
        161 -3 rmoveto
        0 5 184 39 vvcurveto
        129 -55 52 -94 -93 -59 -51 -22 -19 vhcurveto
        -53 callgsubr
        25 4 20 hhcurveto
        65 26 -44 -56 -1 hvcurveto
        -1 -65 rlineto
        -180 -11 -57 -38 -74 vvcurveto
        -62 40 -57 79 46 40 20 18 31 -79 callsubr
        rlineto
        return
      </CharString>
      <CharString index="1">
        hstem
        38 77 161 82 vstem
        -107 callgsubr
        return
      </CharString>
      <CharString index="2">
        93 vstem
        139 339 -97 callsubr
        -93 -19 rmoveto
        -210 126 -118 172 163 152 105 231 211 -127 119 -52 callsubr
        return
      </CharString>
      <CharString index="3">
        -100 callsubr
        -45 -19 -72 callgsubr
        return
      </CharString>
      <CharString index="4">
        hstem
        -8 callsubr
        -105 callgsubr
        return
      </CharString>
      <CharString index="5">
        253 458 rmoveto
        -109 -14 callgsubr
        -145 87 -85 122 91 55 -87 callgsubr
        -58 72 -107 vhcurveto
        -16 -64 -80 callsubr
        return
      </CharString>
      <CharString index="6">
        205 568 rmoveto
        -62 callgsubr
        -455 -73 callgsubr
        460 -43 callsubr
        -217 -4 -8 callgsubr
        106 119 -7 -14 callsubr
        56 -41 callsubr
        0 -119 -12 -106 vhcurveto
        return
      </CharString>
      <CharString index="7">
        -67 callgsubr
        -96 callgsubr
        return
      </CharString>
      <CharString index="8">
        -20 hstem
        99 85 349 -104 callsubr
        return
      </CharString>
      <CharString index="9">
        448 -94 callsubr
        -233 vlineto
        -101 50 -52 94 67 55 27 11 20 -79 callsubr
        -69 24 rlineto
        return
      </CharString>
      <CharString index="10">
        -22 callsubr
        vstem
        -101 callgsubr
        return
      </CharString>
      <CharString index="11">
        31 -24 24 -31 -32 -23 -24 -31 return
      </CharString>
      <CharString index="12">
        -20 hstem
        83 -35 callsubr
        -98 callgsubr
        return
      </CharString>
      <CharString index="13">
        205 567 rmoveto
        -99 callsubr
        return
      </CharString>
      <CharString index="14">
        30 -20 16 -25 -28 vvcurveto
        -28 -15 -32 -42 -33 vhcurveto
        16 -18 rlineto
        53 28 49 51 61 vvcurveto
        38 -19 37 -15 15 vhcurveto
        -20 hlineto
        return
      </CharString>
      <CharString index="15">
        181 -68 callgsubr
        -299 -105 callsubr
        224 -70 callgsubr
        -79 32 rlineto
        return
      </CharString>
      <CharString index="16">
        rmoveto
        19 -19 121 59 121 -59 19 19 -120 111 rlineto
        -40 hlineto
        endchar
      </CharString>
      <CharString index="17">
        rmoveto
        -64 -15 -176 -238 -113 -147 -169 -215 rlinecurve
        12 -11 64 15 176 238 113 147 169 215 rlinecurve
        endchar
      </CharString>
      <CharString index="18">
        -20 -22 callsubr
        vstem
        -94 callgsubr
        return
      </CharString>
      <CharString index="19">
        -66 callgsubr
        -245 hlineto
        -75 callsubr
        return
      </CharString>
      <CharString index="20">
        -42 callgsubr
        -15 -34 -46 -11 -38 hhcurveto
        -95 -56 68 101 -3 hvcurveto
        280 hlineto
        15 15 rlineto
        33 vlineto
        113 return
      </CharString>
      <CharString index="21">
        rmoveto
        13 -20 196 71 4 20 -41 52 rlineto
        endchar
      </CharString>
      <CharString index="22">
        6 -22 70 1 rlineto
        -324 -105 callsubr
        return
      </CharString>
      <CharString index="23">
        -76 -34 -85 callgsubr
        return
      </CharString>
      <CharString index="24">
        -72 callsubr
        -94 hhcurveto
        -40 -39 -9 -16 -31 hvcurveto
        -78 callgsubr
        108 -6 56 -18 rrcurveto
        -26 -39 -14 -53 -66 -37 callsubr
      </CharString>
      <CharString index="25">
        rmoveto
        30 11 9 4 3 vhcurveto
        3 4 7 2 9 hhcurveto
        33 10 -25 -28 -30 -11 -9 -4 -3 hvcurveto
        -3 -4 -7 -2 -9 hhcurveto
        -33 -10 25 28 hvcurveto
        -57 -5 rmoveto
        -51 37 -33 56 56 43 33 54 51 -38 34 -56 -55 -43 -32 -56 vhcurveto
        endchar
      </CharString>
      <CharString index="26">
        hstem
        47 63 182 72 vstem
        275 324 rmoveto
        24 -7 55 78 rlineto
        7 -5 -46 56 -90 hhcurveto
        -79 -87 -43 -90 -51 28 -48 57 -19 hvcurveto
        92 -30 rlineto
        46 -15 22 -18 -34 vvcurveto
        -52 -49 -10 -42 -47 -28 12 8 -14 vhcurveto
        -4 67 -25 7 -51 -83 rlineto
        -23 19 58 -44 89 hhcurveto
        87 79 42 89 62 -39 45 -56 20 hvcurveto
        -102 36 rlineto
        -44 16 -7 25 20 vvcurveto
        14 4 11 5 8 vhcurveto
        7 7 25 17 50 hhcurveto
        32 21 -7 -3 7 hvcurveto
        return
      </CharString>
      <CharString index="27">
        8 17 vhcurveto
        7 14 21 4 19 hhcurveto
        56 28 -36 -82 -53 -12 -28 -6 -13 hvcurveto
        -7 -14 -21 -4 -19 hhcurveto
        -57 -28 return
      </CharString>
      <CharString index="28">
        rmoveto
        -88 callsubr
        return
      </CharString>
      <CharString index="29">
        -55 17 -63 10 -47 -3 rrcurveto
        -114 -7 -95 -87 -135 -77 callsubr
        50 36 return
      </CharString>
      <CharString index="30">
        rmoveto
        50 11 28 -80 callgsubr
        37 80 hvcurveto
        return
      </CharString>
      <CharString index="31">
        5 -2 32 -28 20 -8 85 16 6 22 return
      </CharString>
      <CharString index="32">
        -33 callsubr
        200 -20 -103 callgsubr
        return
      </CharString>
      <CharString index="33">
        -214 -105 callsubr
        224 -70 callgsubr
        -79 32 -8 callgsubr
        return
      </CharString>
      <CharString index="34">
        vlineto
        -63 callgsubr
        return
      </CharString>
      <CharString index="35">
        6 -22 rlineto
        return
      </CharString>
      <CharString index="36">
        -25 callsubr
        230 -20 -102 callsubr
        return
      </CharString>
      <CharString index="37">
        hlineto
        6 22 return
      </CharString>
      <CharString index="38">
        -19 -29 -57 -18 -59 hhcurveto
        -145 -75 107 178 hvcurveto
        return
      </CharString>
      <CharString index="39">
        450 -79 callgsubr
        return
      </CharString>
      <CharString index="40">
        31 24 23 32 return
      </CharString>
      <CharString index="41">
        -43 callgsubr
        -63 callsubr
        return
      </CharString>
      <CharString index="42">
        -72 callsubr
        -92 hhcurveto
        -136 -74 -104 -126 -2 hvcurveto
        -37 callgsubr
      </CharString>
      <CharString index="43">
        628 -52 callgsubr
        -226 hlineto
        -75 callsubr
        -447 vlineto
        -1 -2 rlineto
        2 vlineto
        -354 504 rlineto
        -167 hlineto
        -63 callgsubr
        226 -61 callgsubr
        461 vlineto
        return
      </CharString>
      <CharString index="44">
        -57 callgsubr
        6 -22 rlineto
        return
      </CharString>
      <CharString index="45">
        17 7 13 20 vhcurveto
        185 -44 callsubr
        return
      </CharString>
      <CharString index="46">
        -70 callgsubr
        -86 35 rlineto
        return
      </CharString>
      <CharString index="47">
        rmoveto
        -3 20 rlineto
        -30 20 -16 25 28 vvcurveto
        28 15 32 42 33 vhcurveto
        -16 18 rlineto
        -53 -28 -49 -51 -61 vvcurveto
        -38 19 -37 15 -15 vhcurveto
        20 hlineto
        return
      </CharString>
      <CharString index="48">
        -7 -17 -37 -8 -32 hhcurveto
        -93 -44 66 114 hvcurveto
        return
      </CharString>
      <CharString index="49">
        7 18 6 17 22 9 rlinecurve
        49 21 -51 callsubr
        -194 hlineto
        -6 -22 71 -32 -112 return
      </CharString>
      <CharString index="50">
        -75 callsubr
        -510 vlineto
        -100 callsubr
        -55 -23 return
      </CharString>
      <CharString index="51">
        -96 callgsubr
        vhcurveto
        return
      </CharString>
      <CharString index="52">
        -100 callsubr
        -55 -23 -72 callgsubr
        return
      </CharString>
      <CharString index="53">
        rmoveto
        207 hlineto
        5 85 -28 7 -26 -42 rlineto
        -79 hlineto
        63 51 56 52 66 vvcurveto
        57 -42 38 -55 -61 -47 -46 -4 -3 vhcurveto
        40 -52 30 7 3 39 rlineto
        3 7 9 2 9 hhcurveto
        28 16 -21 -31 -43 -31 -43 -108 -89 hvcurveto
        return
      </CharString>
      <CharString index="54">
        55 -78 24 7 8 76 rlineto
        5 16 return
      </CharString>
      <CharString index="55">
        567 rmoveto
        -66 callgsubr
        return
      </CharString>
      <CharString index="56">
        -68 callsubr
        -67 callgsubr
        return
      </CharString>
      <CharString index="57">
        420 rmoveto
        -16 callsubr
        4 67 13 90 5 40 -14 13 rcurveline
        -92 -10 5 -45 13 -92 4 -63 rlinecurve
        -40 callsubr
        return
      </CharString>
      <CharString index="58">
        vlineto
        -87 -28 -69 -48 -56 vhcurveto
        14 -18 rlineto
        85 47 58 81 110 vvcurveto
        return
      </CharString>
      <CharString index="59">
        hstem
        99 81 193 81 203 81 vstem
        -62 callsubr
        return
      </CharString>
      <CharString index="60">
        -105 -8 65 133 44 165 59 return
      </CharString>
      <CharString index="61">
        rmoveto
        -108 64 -37 69 76 73 46 116 108 -64 47 -69 -76 -73 -56 -116 vhcurveto
        return
      </CharString>
      <CharString index="62">
        567 rmoveto
        -88 callgsubr
        return
      </CharString>
      <CharString index="63">
        3 callsubr
        -16 -35 -49 -10 -35 hhcurveto
        -91 -63 66 119 72 23 47 15 19 hvcurveto
        10 20 44 7 29 hhcurveto
        19 29 -3 -3 11 hvcurveto
        return
      </CharString>
      <CharString index="64">
        19 6 9 -30 callsubr
        return
      </CharString>
      <CharString index="65">
        47 17 16 hvcurveto
        -14 26 rlineto
        return
      </CharString>
      <CharString index="66">
        -79 callgsubr
        -529 -105 callsubr
        224 -70 callgsubr
        -79 32 rlineto
        endchar
      </CharString>
      <CharString index="67">
        170 -68 callgsubr
        -386 -49 callgsubr
        return
      </CharString>
      <CharString index="68">
        24 10 rlinecurve
        -63 callsubr
        return
      </CharString>
      <CharString index="69">
        -13 callsubr
        260 85 vstem
        return
      </CharString>
      <CharString index="70">
        -84 callgsubr
        224 -70 callgsubr
        -79 32 rlineto
        endchar
      </CharString>
      <CharString index="71">
        44 7 35 hhcurveto
        70 30 -27 -69 hvcurveto
        return
      </CharString>
      <CharString index="72">
        -18 callgsubr
        19 6 return
      </CharString>
      <CharString index="73">
        rmoveto
        150 76 -116 -179 -123 -36 -61 -26 -32 hvcurveto
        -19 -29 -48 -24 -121 hhcurveto
        -25 -46 1 3 -29 hvcurveto
        return
      </CharString>
      <CharString index="74">
        230 -20 hstem
        return
      </CharString>
      <CharString index="75">
        -34 callsubr
        hintmask 10111100
        -15 callgsubr
      </CharString>
      <CharString index="76">
        -2 0 hvcurveto
        -27 callgsubr
        return
      </CharString>
      <CharString index="77">
        21 -21 650 -20 return
      </CharString>
      <CharString index="78">
        -54 callsubr
        465 -43 callsubr
        -222 -4 rlineto
        return
      </CharString>
      <CharString index="79">
        -8 62 540 64 return
      </CharString>
      <CharString index="80">
        11 49 -41 callsubr
        return
      </CharString>
      <CharString index="81">
        180 404 rmoveto
        return
      </CharString>
      <CharString index="82">
        rmoveto
        26 -212 34 4 28 207 -12 11 rlineto
        return
      </CharString>
      <CharString index="83">
        81 203 81 return
      </CharString>
      <CharString index="84">
        46 -16 0 hvcurveto
        5 -94 24 -7 65 90 rlineto
        return
      </CharString>
      <CharString index="85">
        14 9 11 18 vhcurveto
        return
      </CharString>
      <CharString index="86">
        225 -110 117 -224 -58 -226 -8 0 hvcurveto
        -75 callsubr
        return
      </CharString>
      <CharString index="87">
        12 6 18 7 42 -1 34 -1 22 -4 11 -2 14 49 rcurveline
        -7 21 -7 3 return
      </CharString>
      <CharString index="88">
        -32 callsubr
        30 hlineto
        70 8 42 6 13 vhcurveto
        return
      </CharString>
      <CharString index="89">
        567 rmoveto
        return
      </CharString>
      <CharString index="90">
        479 -23 callsubr
        return
      </CharString>
      <CharString index="91">
        163 -8 62 -13 callgsubr
        return
      </CharString>
      <CharString index="92">
        -6 -2 -16 -6 -28 1 rrcurveto
        endchar
      </CharString>
      <CharString index="93">
        -106 -76 -160 return
      </CharString>
      <CharString index="94">
        596 -20 return
      </CharString>
      <CharString index="95">
        680 -79 callgsubr
        return
      </CharString>
      <CharString index="96">
        -28 callsubr
        -129 -87 callsubr
        return
      </CharString>
      <CharString index="97">
        110 hstem
        return
      </CharString>
      <CharString index="98">
        hstem
        99 -1 callsubr
        return
      </CharString>
      <CharString index="99">
        rlineto
        251 vlineto
        return
      </CharString>
      <CharString index="100">
        -2 -189 vhcurveto
        return
      </CharString>
      <CharString index="101">
        110 hstemhm
        return
      </CharString>
      <CharString index="102">
        0 47 223 47 16 47 223 47 hstem
        return
      </CharString>
      <CharString index="103">
        -67 -55 -27 -11 -20 return
      </CharString>
      <CharString index="104" raw="1">
        6a1db10b   
      </CharString>
      <CharString index="105">
        23 rcurveline
        -51 callsubr
        return
      </CharString>
      <CharString index="106">
        -20 hstemhm
        120 66 376 66 hintmask 00000000
        return
      </CharString>
      <CharString index="107">
        48 173 65 hstem
        99 81 193 81 return
      </CharString>
      <CharString index="108">
        61 -3 67 -10 42 -4 return
      </CharString>
      <CharString index="109">
        -30 callgsubr
        hstem
        return
      </CharString>
      <CharString index="110">
        vlineto
        -20 8 return
      </CharString>
      <CharString index="111">
        62 157 63 78 62 157 63 return
      </CharString>
      <CharString index="112">
        -2 0 vvcurveto
        11 52 -41 callsubr
        0 return
      </CharString>
      <CharString index="113">
        0 vhcurveto
        12 -11 49 11 rlineto
        0 -1 return
      </CharString>
      <CharString index="114">
        -176 579 -21 130 -20 hstem
        return
      </CharString>
      <CharString index="115">
        -207 -21 220 64 333 69 return
      </CharString>
      <CharString index="116">
        rlinecurve
        -12 11 rlineto
        endchar
      </CharString>
      <CharString index="117">
        -12 rlineto
        17 47 0 -1 56 hvcurveto
        return
      </CharString>
      <CharString index="118">
        -20 -38 callgsubr
        return
      </CharString>
      <CharString index="119">
        78 vstem
        43 320 rmoveto
        -230 return
      </CharString>
      <CharString index="120">
        -20 hstemhm
        hintmask 00000000
        return
      </CharString>
      <CharString index="121">
        -21 658 -20 return
      </CharString>
      <CharString index="122">
        rlineto
        -197 return
      </CharString>
</ttFont>
